<?xml version="1.0" encoding="utf-8"?>
<!DOCTYPE svg PUBLIC "-//W3C//DTD SVG 1.1//EN" "http://www.w3.org/Graphics/SVG/1.1/DTD/svg11.dtd">
<svg version="1.1" id="Layer_1" xmlns="http://www.w3.org/2000/svg" xmlns:xlink="http://www.w3.org/1999/xlink" x="0px" y="0px"
	 width="19px" height="57px" viewBox="0 0.063 19 57" enable-background="new 0 0.063 19 57" xml:space="preserve">
	<path id="focus" fill="#005EA5" d="M9.5,0.06C4.254,0.06,0,4.313,0,9.56s4.254,9.5,9.5,9.5c5.248,0,9.5-4.253,9.5-9.5
		S14.748,0.06,9.5,0.06z M14.143,11.047h-3.227v3.465H8.208v-3.467H4.963V8.418h3.245V4.944h2.708v3.475h3.227V11.047z"/>
	<path id="hover" fill="#2E8ACA" d="M9.5,19.063c-5.246,0-9.5,4.253-9.5,9.5s4.254,9.5,9.5,9.5c5.248,0,9.5-4.253,9.5-9.5
		S14.748,19.063,9.5,19.063z M14.143,30.05h-3.227v3.465H8.208v-3.467H4.963v-2.627h3.245v-3.475h2.708v3.475h3.227V30.05z"/>
	<path id="normal" fill="#003965" d="M9.5,38.063c-5.246,0-9.5,4.253-9.5,9.5s4.254,9.5,9.5,9.5c5.248,0,9.5-4.253,9.5-9.5
		S14.748,38.063,9.5,38.063z M14.143,49.05h-3.227v3.465H8.208v-3.467H4.963v-2.627h3.245v-3.475h2.708v3.475h3.227V49.05z"/>
</svg>
