<?xml version="1.0" encoding="utf-8"?>
<!DOCTYPE svg PUBLIC "-//W3C//DTD SVG 1.1//EN" "http://www.w3.org/Graphics/SVG/1.1/DTD/svg11.dtd">
<svg version="1.1" id="warning-icon" xmlns="http://www.w3.org/2000/svg" xmlns:xlink="http://www.w3.org/1999/xlink" x="0px"
	 y="0px" width="28px" height="28px" viewBox="0 0 28 28" style="enable-background:new 0 0 28 28;" xml:space="preserve">
<style type="text/css">
<![CDATA[
	.st0{fill:#FFFFFF;}
]]>
</style>
<circle id="background-circle" cx="14" cy="14" r="14"/>
<path id="exclamation-mark" class="st0" d="M11.823,20.567c0-0.296,0.057-0.574,0.17-0.836c0.114-0.262,0.271-0.49,0.472-0.688
	c0.201-0.197,0.435-0.353,0.7-0.467c0.265-0.113,0.549-0.17,0.852-0.17c0.296,0,0.574,0.057,0.836,0.17
	c0.261,0.114,0.492,0.27,0.689,0.467c0.195,0.197,0.352,0.426,0.465,0.688s0.17,0.54,0.17,0.836c0,0.303-0.057,0.587-0.17,0.853
	s-0.27,0.496-0.465,0.693c-0.197,0.197-0.428,0.353-0.689,0.466c-0.262,0.114-0.54,0.171-0.836,0.171
	c-0.303,0-0.587-0.057-0.852-0.171c-0.266-0.113-0.499-0.269-0.7-0.466c-0.2-0.197-0.357-0.428-0.472-0.693
	C11.879,21.154,11.823,20.87,11.823,20.567z M12.266,5.25h3.445l-0.295,10.789h-2.833L12.266,5.25z"/>
</svg>
