<?xml version="1.0" encoding="utf-8"?>
<!-- Generator: Adobe Illustrator 16.0.0, SVG Export Plug-In . SVG Version: 6.00 Build 0)  -->
<!DOCTYPE svg PUBLIC "-//W3C//DTD SVG 1.1//EN" "http://www.w3.org/Graphics/SVG/1.1/DTD/svg11.dtd">
<svg version="1.1" id="Layer_1" xmlns="http://www.w3.org/2000/svg" xmlns:xlink="http://www.w3.org/1999/xlink" x="0px" y="0px"
	 width="24px" height="24px" viewBox="3.5 -3.5 24 24" enable-background="new 3.5 -3.5 24 24" xml:space="preserve">
<g class="print-icon-svg">
	<g>
		<rect x="8.184" y="-3.205" fill="#FFFFFF" width="14.634" height="11.777"/>
		<path fill="#231F20" d="M23.109,8.865H7.891V-3.5h15.218V8.865L23.109,8.865z M8.477,8.277h14.048V-2.911H8.477V8.277z"/>
	</g>
	<g>
		<path fill="#FFFFFF" d="M27.208,11.994c0,1.508-1.3,2.731-2.903,2.731H6.697c-1.604,0-2.904-1.223-2.904-2.731V5.68
			c0-1.508,1.301-2.731,2.904-2.731h17.606c1.604,0,2.904,1.224,2.904,2.731L27.208,11.994L27.208,11.994z"/>
		<path fill="#231F20" d="M24.305,15.02H6.697c-1.763,0-3.197-1.357-3.197-3.026V5.68c0-1.668,1.434-3.025,3.197-3.025h17.606
			C26.066,2.654,27.5,4.012,27.5,5.68v6.313C27.5,13.662,26.066,15.02,24.305,15.02z M6.697,3.242c-1.439,0-2.611,1.094-2.611,2.438
			v6.313c0,1.344,1.172,2.438,2.611,2.438h17.606c1.44,0,2.611-1.094,2.611-2.438V5.68c0-1.344-1.171-2.438-2.611-2.438H6.697z"/>
	</g>
	<g>
		<g>
			<g>
				<path fill="#FFFFFF" d="M23.518,20.043c-6.425,0-9.634,0-16.054,0c0.557-4.467,0.834-6.701,1.391-11.168
					c5.31,0,7.961,0,13.271,0C22.684,13.342,22.96,15.576,23.518,20.043z"/>
				<path fill="#231F20" d="M23.887,20.33c-6.72,0-10.074,0-16.791,0c0.609-4.695,0.916-7.043,1.525-11.741
					c5.495,0,8.242,0,13.738,0C22.971,13.287,23.275,15.635,23.887,20.33z M7.824,19.758c6.134,0,9.197,0,15.333,0
					c-0.509-4.238-0.765-6.359-1.272-10.599c-5.117,0-7.672,0-12.789,0C8.588,13.398,8.332,15.52,7.824,19.758z"/>
			</g>
			<path fill="#231F20" d="M20.75,12.017c-4.216,0-6.322,0-10.539,0c0.021-0.229,0.034-0.346,0.056-0.574c4.174,0,6.258,0,10.43,0
				C20.719,11.671,20.729,11.789,20.75,12.017z"/>
			<path fill="#231F20" d="M21.012,14.809c-4.426,0-6.638,0-11.063,0c0.021-0.229,0.03-0.344,0.052-0.574c4.383,0,6.577,0,10.96,0
				C20.98,14.465,20.99,14.58,21.012,14.809z"/>
			<path fill="#231F20" d="M15.557,17.6c-2.348,0-3.521,0-5.869,0c0.021-0.229,0.034-0.342,0.056-0.57c2.326,0,3.484,0,5.811,0
				C15.553,17.258,15.557,17.371,15.557,17.6z"/>
		</g>
	</g>
	<circle fill="#231F20" cx="24.314" cy="5.771" r="0.75"/>
</g>
</svg>
