<?xml version="1.0" standalone="no"?>
<!DOCTYPE svg PUBLIC "-//W3C//DTD SVG 20010904//EN"
 "http://www.w3.org/TR/2001/REC-SVG-20010904/DTD/svg10.dtd">
<svg version="1.0" xmlns="http://www.w3.org/2000/svg"
 width="300.000000pt" height="300.000000pt" viewBox="0 0 300.000000 300.000000"
 preserveAspectRatio="xMidYMid meet">
<metadata>
Created by potrace 1.11, written by Peter Selinger 2001-2013
</metadata>
<g transform="translate(0.000000,300.000000) scale(0.100000,-0.100000)"
fill="#000000" stroke="none">
<path d="M0 1500 l0 -1500 1500 0 1500 0 0 1500 0 1500 -1500 0 -1500 0 0
-1500z m1440 1070 c7 -16 15 -30 17 -30 3 0 27 11 55 25 27 14 54 25 59 25 5
0 24 -16 41 -36 26 -30 36 -35 66 -32 31 3 37 7 44 36 9 33 21 41 34 21 4 -7
22 -9 51 -4 40 6 46 4 71 -24 14 -17 36 -31 48 -31 13 0 32 -13 45 -32 13 -17
38 -44 54 -60 29 -28 33 -29 93 -23 72 7 97 -5 122 -57 14 -30 18 -32 60 -30
41 3 48 0 69 -28 21 -29 21 -33 7 -49 -20 -22 -21 -71 -2 -71 8 0 18 5 21 10
3 6 19 10 35 10 45 0 117 -71 126 -123 5 -30 17 -51 45 -77 38 -35 49 -63 29
-75 -6 -4 -8 -16 -4 -28 8 -28 68 -119 88 -136 20 -17 20 -41 0 -69 -14 -21
-14 -25 14 -60 27 -35 52 -75 52 -85 0 -3 -14 -10 -31 -17 -22 -10 -28 -17
-23 -29 4 -9 7 -29 6 -45 -1 -17 5 -37 13 -46 10 -11 15 -37 15 -71 0 -30 1
-79 1 -111 0 -31 -4 -59 -10 -62 -5 -3 -25 1 -45 9 -59 25 -71 3 -36 -62 26
-48 25 -51 -9 -104 -21 -32 -40 -49 -75 -63 -47 -19 -48 -19 -86 3 -21 11 -47
21 -58 21 -11 0 -25 7 -32 15 -24 29 -108 10 -135 -31 -18 -27 -50 -31 -81 -9
-12 8 -24 12 -27 9 -3 -3 -24 0 -48 6 -23 6 -73 13 -112 14 -56 2 -72 6 -86
23 -15 19 -23 20 -118 14 -56 -4 -104 -9 -106 -11 -34 -46 -36 -61 -39 -249
-3 -187 -3 -191 20 -213 l23 -23 23 28 c27 34 51 34 72 2 11 -17 25 -25 45
-25 16 0 29 4 29 9 0 14 48 61 63 61 8 0 21 -19 30 -41 13 -34 20 -40 37 -36
27 7 42 -22 38 -76 l-3 -42 -565 3 c-440 3 -571 7 -590 17 l-25 13 31 18 c16
9 42 33 57 53 25 33 32 36 76 36 26 0 55 -6 65 -14 15 -12 20 -11 44 12 30 29
61 34 80 15 10 -10 18 -9 40 4 15 8 40 18 55 22 38 9 54 51 63 163 10 137 -2
251 -31 287 -21 26 -30 30 -73 29 -49 -1 -124 -34 -152 -68 -7 -8 -27 -15 -44
-15 -17 0 -42 -7 -54 -16 -16 -11 -34 -14 -57 -10 -28 6 -39 2 -67 -22 -42
-37 -100 -34 -126 6 -9 14 -28 37 -41 50 -23 23 -24 23 -63 7 -46 -18 -54 -15
-63 26 -6 27 -10 29 -34 24 -20 -4 -38 2 -71 24 -25 17 -51 31 -59 31 -8 0
-23 8 -33 17 -16 14 -23 15 -38 5 -11 -7 -37 -12 -58 -12 -37 0 -41 3 -66 51
-28 55 -32 94 -15 149 26 88 37 135 31 138 -57 25 -77 40 -80 58 -2 16 4 24
27 32 16 6 39 20 51 32 15 15 31 20 58 19 45 -3 62 6 62 31 0 21 -36 50 -62
50 -11 0 -18 8 -18 20 0 12 -11 31 -25 44 -19 17 -25 33 -25 63 0 49 16 64 72
68 24 1 51 3 61 4 11 1 17 9 17 26 0 19 10 29 40 45 54 28 68 55 42 83 -11 12
-23 41 -27 64 -6 41 -6 42 37 64 32 17 62 23 118 24 l75 2 3 37 c3 29 10 41
37 59 41 26 49 42 34 69 -9 16 -7 24 7 39 16 15 26 17 61 9 54 -13 90 1 99 35
7 28 67 75 96 75 9 0 22 -9 28 -20 15 -29 65 -26 107 6 28 22 33 30 28 53 -5
23 -1 29 20 39 37 17 65 15 109 -8 44 -22 56 -19 56 14 0 29 7 36 40 36 21 0
31 -7 40 -30z"/>
</g>
</svg>
