<?xml version="1.0" encoding="utf-8"?>
<!-- Generator: Adobe Illustrator 16.0.0, SVG Export Plug-In . SVG Version: 6.00 Build 0)  -->
<!DOCTYPE svg PUBLIC "-//W3C//DTD SVG 1.1//EN" "http://www.w3.org/Graphics/SVG/1.1/DTD/svg11.dtd">
<svg version="1.1" id="Layer_1" xmlns="http://www.w3.org/2000/svg" xmlns:xlink="http://www.w3.org/1999/xlink" x="0px" y="0px"
	 width="322px" height="32px" viewBox="0 0 322 32" style="enable-background:new 0 0 322 32;" xml:space="preserve">
<style type="text/css">
<![CDATA[
	.st0{fill:#EC008C;}
	.st1{fill:#FFFFFF;}
]]>
</style>
<g id="CMC">
	<path class="st1" d="M12.866,13.631c-1.429-1.23-2.228-1.728-4.154-1.728c-4.057,0-6.319,3.423-6.319,6.55
		c0,3.592,2.727,6.285,6.351,6.285c1.629,0,2.993-0.701,4.123-1.832v3.859c-0.031,0-0.532-0.367-0.664-0.367
		c-0.133,0-2.327,0.6-4.09,0.6C4.123,26.998,0,23.475,0,18.387C0,13.666,3.69,9.64,8.344,9.64c1.664,0,3.293,0.666,3.759,0.666
		c0.267,0,0.599-0.399,0.764-0.564L12.866,13.631L12.866,13.631z"/>
	<path class="st1" d="M20.817,24.738L14.733,12.2c-0.365-0.731-0.831-1.562-1.463-2.028h3.823c-0.199,0.165-0.266,0.399-0.266,0.6
		c0,0.399,0.466,1.429,0.765,2.06l4.423,9.777h0.066l4.522-9.777c0.3-0.631,0.764-1.66,0.764-2.06c0-0.2-0.066-0.435-0.266-0.6
		h3.758c-0.63,0.467-1.096,1.297-1.464,2.028l-9.209,18.688c-0.233,0.498-0.6,1.03-0.6,1.297c0,0.198,0.066,0.399,0.2,0.563h-3.724
		c0.63-0.533,1.296-1.563,1.795-2.459L20.817,24.738z"/>
	<path class="st1" d="M32.33,26.465c0.532-0.266,0.599-1.064,0.599-2.361V4.288c0-0.634-0.033-1.198-0.532-1.496h2.86v22.312
		c0,0.697,0.23,1.162,0.599,1.361H32.33z"/>
	<path class="st1" d="M39.714,26.465c0.532-0.266,0.599-1.064,0.599-2.361V4.288c0-0.634-0.033-1.198-0.532-1.496h2.86v22.312
		c0,0.697,0.231,1.162,0.599,1.361H39.714z"/>
	<path class="st1" d="M47.098,26.465c0.533-0.266,0.6-1.064,0.6-2.361V11.668c0-0.631-0.033-1.197-0.532-1.496h2.859v14.932
		c0,0.696,0.231,1.162,0.6,1.36L47.098,26.465L47.098,26.465z M50.357,6.117c0,0.83-0.699,1.495-1.496,1.495
		c-0.798,0-1.497-0.665-1.497-1.495c0-0.831,0.699-1.496,1.497-1.496C49.658,4.621,50.357,5.286,50.357,6.117z"/>
	<path class="st1" d="M68.615,3.888c0-0.364-0.134-0.764-0.6-1.097h2.926v18.322c0,0.799,0,1.961,0.366,2.26
		c-0.699,0.133-1.33,0.531-1.929,0.932c-2.361,1.33-3.724,2.693-6.65,2.693c-5.054,0-8.91-3.857-8.91-8.811
		c0-5.023,4.288-8.547,9.143-8.547c2.328,0,4.257,0.498,5.521,2.428l0.134-0.066L68.615,3.888L68.615,3.888z M68.615,14.563
		c-1.73-1.731-2.894-2.66-6.12-2.66c-3.724,0-6.284,2.957-6.284,6.517c0,3.457,3.026,6.318,6.551,6.318
		c2.993,0,4.622-1.863,5.854-2.529L68.615,14.563L68.615,14.563z"/>
	<path class="st1" d="M85.285,14.229c0-0.531-0.168-0.697-0.302-0.963c2.993-1.429,3.293-3.625,7.716-3.625
		c2.36,0,4.522,0.799,5.918,3.026c1.598-1.429,2.594-3.026,6.352-3.026c3.923,0,7.183,3.325,7.183,7.216v7.646
		c0,1.363,0.331,1.664,0.73,1.961h-3.724c0.632-0.398,0.665-0.932,0.665-1.859v-7.416c0-2.96-2.228-5.287-5.22-5.287
		c-2.729,0-4.189,2.193-4.722,2.691v9.91c0,1.363,0.333,1.664,0.73,1.961h-3.724c0.632-0.398,0.664-0.932,0.664-1.859v-7.416
		c0-2.96-2.229-5.287-5.22-5.287c-2.726,0-4.057,2.193-4.722,2.691v10.708c0,0.6,0.565,0.963,0.831,1.162h-3.69
		c0.466-0.332,0.533-0.764,0.533-1.629V14.229H85.285z"/>
	<path class="st1" d="M121.472,24.738L115.387,12.2c-0.365-0.731-0.832-1.562-1.462-2.028h3.823c-0.199,0.165-0.267,0.399-0.267,0.6
		c0,0.399,0.466,1.429,0.766,2.06l4.421,9.777h0.066l4.522-9.777c0.302-0.631,0.766-1.66,0.766-2.06c0-0.2-0.066-0.435-0.267-0.6
		h3.758c-0.631,0.467-1.097,1.297-1.463,2.028l-9.211,18.688c-0.231,0.498-0.598,1.03-0.598,1.297c0,0.198,0.065,0.399,0.198,0.563
		h-3.724c0.632-0.533,1.298-1.563,1.797-2.459L121.472,24.738z"/>
	<path class="st1" d="M131.753,10.24h2.194V8.411c0-3.657,3.227-6.151,5.321-6.151c0.364,0,0.863-0.133,1.163-0.266v2.658h-0.333
		c-2.062,0-3.823,1.097-3.823,3.791v1.729h4.156v2.526c-0.233-0.099-0.533-0.165-0.831-0.2c-0.301-0.031-0.599-0.066-0.898-0.066
		h-2.427v12.671c0,0.696,0.232,1.162,0.599,1.36h-3.525c0.532-0.267,0.599-1.063,0.599-2.36V12.432h-0.998
		c-0.398,0-0.897,0.134-1.196,0.267L131.753,10.24L131.753,10.24z"/>
	<path class="st1" d="M147.352,24.738L141.267,12.2c-0.366-0.731-0.832-1.562-1.463-2.028h3.823c-0.199,0.165-0.266,0.399-0.266,0.6
		c0,0.399,0.466,1.429,0.766,2.06l4.421,9.777h0.066l4.522-9.777c0.301-0.631,0.766-1.66,0.766-2.06c0-0.2-0.066-0.435-0.266-0.6
		h3.756c-0.631,0.467-1.096,1.297-1.463,2.028l-9.21,18.688c-0.231,0.498-0.598,1.03-0.598,1.297c0,0.198,0.065,0.399,0.198,0.563
		h-3.724c0.633-0.533,1.298-1.563,1.797-2.459L147.352,24.738z"/>
	<path class="st1" d="M166.18,11.903h-0.601c-1.861,0-4.389,1.129-4.389,4.652v8.549c0,0.697,0.232,1.162,0.6,1.361h-3.525
		c0.531-0.266,0.598-1.064,0.598-2.393V11.371c0-0.399-0.199-0.865-0.332-1.198h2.494v2.162h0.066
		c0.732-1.997,2.462-2.694,4.188-2.694c0.332,0,0.601-0.098,0.898-0.332v2.594H166.18z"/>
	<path class="st1" d="M183.904,22.143h0.066l4.322-9.91c0.332-0.796,0.531-1.195,0.531-1.461c0-0.2-0.1-0.435-0.297-0.6h3.656
		c-0.601,0.432-1.099,1.23-1.433,1.931l-6.979,14.895h-0.066l-4.557-12.072h-0.066l-4.654,12.072h-0.068l-6.916-14.895
		c-0.33-0.7-0.83-1.499-1.43-1.931h3.758c-0.198,0.165-0.299,0.399-0.299,0.6c0,0.266,0.199,0.665,0.531,1.461l4.189,9.91h0.065
		l4.89-12.768h0.065L183.904,22.143z"/>
	<path class="st1" d="M199.109,24.738L193.025,12.2c-0.366-0.731-0.832-1.562-1.465-2.028h3.824c-0.199,0.165-0.266,0.399-0.266,0.6
		c0,0.399,0.465,1.429,0.764,2.06l4.424,9.777h0.066l4.521-9.777c0.301-0.631,0.766-1.66,0.766-2.06c0-0.2-0.066-0.435-0.266-0.6
		h3.756c-0.631,0.467-1.099,1.297-1.461,2.028l-9.211,18.688c-0.234,0.498-0.601,1.03-0.601,1.297c0,0.198,0.065,0.399,0.199,0.563
		h-3.726c0.633-0.533,1.297-1.563,1.797-2.459L199.109,24.738z"/>
	<path class="st1" d="M217.938,11.903h-0.599c-1.862,0-4.392,1.129-4.392,4.652v8.549c0,0.697,0.234,1.162,0.601,1.361h-3.524
		c0.531-0.266,0.6-1.064,0.6-2.393V11.371c0-0.399-0.201-0.865-0.334-1.198h2.494v2.162h0.066c0.731-1.997,2.461-2.694,4.188-2.694
		c0.334,0,0.601-0.098,0.897-0.332v2.594H217.938z"/>
	<path class="st0" d="M241.95,13.631c-1.431-1.23-2.228-1.728-4.156-1.728c-4.058,0-6.317,3.423-6.317,6.55
		c0,3.592,2.727,6.285,6.352,6.285c1.631,0,2.992-0.701,4.123-1.832v3.859c-0.031,0-0.531-0.367-0.664-0.367s-2.328,0.6-4.09,0.6
		c-3.99,0-8.113-3.523-8.113-8.611c0-4.721,3.691-8.747,8.346-8.747c1.662,0,3.291,0.666,3.758,0.666
		c0.267,0,0.599-0.399,0.765-0.564v3.889H241.95z"/>
	<path class="st0" d="M249.902,24.738L243.816,12.2c-0.364-0.731-0.832-1.562-1.463-2.028h3.822c-0.197,0.165-0.264,0.399-0.264,0.6
		c0,0.399,0.465,1.429,0.764,2.06l4.422,9.777h0.066l4.523-9.777c0.299-0.631,0.766-1.66,0.766-2.06c0-0.2-0.066-0.435-0.268-0.6
		h3.758c-0.633,0.467-1.098,1.297-1.463,2.028l-9.211,18.688c-0.232,0.498-0.601,1.03-0.601,1.297c0,0.198,0.065,0.399,0.201,0.563
		h-3.726c0.633-0.533,1.297-1.563,1.795-2.459L249.902,24.738z"/>
	<path class="st0" d="M261.745,14.229c0-0.531-0.166-0.697-0.3-0.963c2.994-1.429,3.293-3.625,7.716-3.625
		c2.358,0,4.521,0.799,5.92,3.026c1.597-1.429,2.592-3.026,6.351-3.026c3.924,0,7.182,3.325,7.182,7.216v7.646
		c0,1.363,0.334,1.664,0.732,1.961h-3.726c0.631-0.398,0.664-0.932,0.664-1.859v-7.416c0-2.96-2.228-5.287-5.22-5.287
		c-2.727,0-4.188,2.193-4.723,2.691v9.91c0,1.363,0.334,1.664,0.732,1.961h-3.725c0.631-0.398,0.664-0.932,0.664-1.859v-7.416
		c0-2.96-2.228-5.287-5.22-5.287c-2.728,0-4.058,2.193-4.724,2.691v10.708c0,0.6,0.566,0.963,0.83,1.162h-3.688
		c0.466-0.332,0.531-0.764,0.531-1.629V14.229H261.745z"/>
	<path class="st0" d="M300.13,11.903h-0.601c-1.86,0-4.389,1.129-4.389,4.652v8.549c0,0.697,0.232,1.162,0.598,1.361h-3.524
		c0.533-0.266,0.601-1.064,0.601-2.393V11.371c0-0.399-0.199-0.865-0.332-1.198h2.494v2.162h0.065
		c0.729-1.997,2.461-2.694,4.188-2.694c0.332,0,0.599-0.098,0.898-0.332L300.13,11.903L300.13,11.903z"/>
	<path class="st0" d="M317.189,10.172c-0.467,0.333-0.532,0.765-0.532,1.63v10.606c0,0.533,0.168,0.697,0.301,0.965
		c-2.795,1.563-3.291,3.625-7.715,3.625c-3.923,0-7.183-2.525-7.183-6.648v-8.214c0-1.362-0.334-1.663-0.731-1.962h3.726
		c-0.632,0.399-0.666,0.933-0.666,1.864v8.111c0,2.859,2.063,4.59,4.987,4.59c2.959,0,4.324-1.93,4.955-2.692v-10.71
		c0-0.6-0.563-0.964-0.832-1.164H317.189z"/>
</g>
</svg>
