<?xml version="1.0" encoding="utf-8"?>
<!DOCTYPE svg PUBLIC "-//W3C//DTD SVG 1.1//EN" "http://www.w3.org/Graphics/SVG/1.1/DTD/svg11.dtd">
<svg version="1.1" id="Layer_1" xmlns="http://www.w3.org/2000/svg" xmlns:xlink="http://www.w3.org/1999/xlink" x="0px" y="0px"
	 width="41px" height="30px" viewBox="0 0 41 30" enable-background="new 0 0 41 30" xml:space="preserve">
<g>
	<path fill="#FFFFFF" d="M7.736,9.449c1.124,0.465,2.4-0.066,2.857-1.179c0.461-1.112-0.066-2.4-1.189-2.864
		C8.301,4.953,7.02,5.493,6.562,6.609C6.103,7.718,6.632,8.997,7.736,9.449"/>
	<path fill="#FFFFFF" d="M2.787,12.355c1.125,0.464,2.4-0.067,2.856-1.18c0.462-1.112-0.063-2.402-1.187-2.864
		C3.352,7.856,2.073,8.4,1.612,9.514C1.153,10.624,1.686,11.901,2.787,12.355"/>
	<path fill="#FFFFFF" d="M1.34,17.867c1.125,0.463,2.4-0.066,2.857-1.182c0.46-1.108-0.067-2.399-1.189-2.862
		c-1.102-0.451-2.384,0.088-2.842,1.203C-0.294,16.136,0.238,17.414,1.34,17.867"/>
	<path fill="#FFFFFF" d="M13.257,11.195c1.127,0.466,2.402-0.066,2.856-1.18c0.46-1.11-0.064-2.402-1.189-2.864
		C13.822,6.7,12.542,7.24,12.086,8.354C11.624,9.465,12.155,10.744,13.257,11.195"/>
	<path fill="#FFFFFF" d="M33.265,9.449c-1.124,0.465-2.4-0.066-2.856-1.179c-0.461-1.112,0.065-2.4,1.188-2.864
		c1.103-0.453,2.384,0.087,2.841,1.203C34.896,7.718,34.365,8.997,33.265,9.449"/>
	<path fill="#FFFFFF" d="M38.213,12.355c-1.127,0.464-2.399-0.067-2.858-1.18c-0.461-1.112,0.065-2.402,1.189-2.864
		c1.104-0.455,2.384,0.089,2.844,1.202C39.845,10.624,39.314,11.901,38.213,12.355"/>
	<path fill="#FFFFFF" d="M39.66,17.867c-1.123,0.463-2.399-0.066-2.856-1.182c-0.461-1.108,0.064-2.399,1.188-2.862
		c1.104-0.451,2.385,0.088,2.844,1.203C41.294,16.136,40.762,17.414,39.66,17.867"/>
	<path fill="#FFFFFF" d="M27.743,11.195c-1.125,0.466-2.399-0.066-2.858-1.18c-0.459-1.11,0.066-2.402,1.189-2.864
		c1.104-0.451,2.384,0.089,2.844,1.203C29.377,9.465,28.845,10.744,27.743,11.195"/>
	<path fill="#FFFFFF" d="M21.653,5.545l0.006-0.005l2.762,1.452v-4.08l-2.757,0.877l-0.011-0.01
		c-0.076-0.101-0.166-0.191-0.268-0.271l-0.007-0.007L22.489,0h-1.995h-1.993l1.11,3.502l-0.009,0.007
		c-0.099,0.079-0.191,0.17-0.267,0.271l-0.008,0.01l-2.759-0.877v4.081l2.762-1.453l0.008,0.005c0.08,0.106,0.177,0.203,0.285,0.283
		l-1.586,4.796c-0.002,0.005-0.004,0.014-0.005,0.017l-0.002,0.007c-0.073,0.239-0.113,0.493-0.113,0.757
		c0,1.297,0.954,2.369,2.199,2.553c0.019,0.002,0.037,0.005,0.055,0.008c0.106,0.014,0.215,0.023,0.323,0.023
		c0.112,0,0.22-0.01,0.325-0.023c0.018-0.003,0.037-0.006,0.056-0.008c1.243-0.184,2.199-1.256,2.199-2.553
		c0-0.264-0.041-0.519-0.114-0.757l-0.002-0.007c-0.002-0.003-0.003-0.012-0.005-0.017l-1.587-4.796
		C21.474,5.748,21.57,5.651,21.653,5.545"/>
	<path fill="#FFFFFF" d="M20.496,29.01c5.244,0,10.208,0.357,14.63,0.99c1.255-5.287,2.785-8.32,4.361-10.476l-2.972-1.06
		c0.296,1.512,0.342,2.215,0.013,3.187c-0.488-0.481-0.954-1.364-1.317-2.713l-1.438,4.803c0.876-0.604,1.549-0.995,2.324-1.013
		c-1.371,2.959-3.083,3.72-4.191,3.514c-1.355-0.248-1.977-1.458-1.767-2.484c0.311-1.454,1.8-1.835,2.497-0.143
		c1.331-2.719-0.929-3.567-2.381-2.761c2.231-2.23,2.487-4.214,0.686-6.611c-2.509,1.922-2.537,3.824-1.409,6.503
		c-1.464-1.681-3.743-0.778-2.922,1.938c1.057-1.641,2.456-0.608,2.236,0.948c-0.185,1.355-1.973,2.453-4.199,2.259
		c-3.189-0.292-3.381-2.497-3.459-4.323c0.784-0.145,2.196,0.584,3.399,2.277l0.446-5.095c-1.312,1.368-2.501,1.628-3.823,1.669
		c0.44-1.375,2.46-3.629,2.46-3.629h-2.938l0,0h-0.003h-3.404c0,0,2.023,2.254,2.463,3.629c-1.322-0.041-2.511-0.301-3.822-1.669
		l0.444,5.095c1.205-1.693,2.614-2.422,3.399-2.277c-0.079,1.826-0.269,4.031-3.46,4.323c-2.226,0.194-4.013-0.903-4.199-2.259
		c-0.217-1.557,1.181-2.589,2.238-0.948c0.822-2.716-1.458-3.618-2.923-1.938c1.13-2.679,1.1-4.581-1.41-6.503
		c-1.801,2.397-1.544,4.381,0.686,6.611c-1.453-0.807-3.709,0.042-2.378,2.761c0.695-1.692,2.184-1.312,2.497,0.143
		c0.21,1.026-0.415,2.236-1.768,2.484c-1.109,0.206-2.821-0.555-4.192-3.514c0.771,0.018,1.449,0.408,2.325,1.013l-1.44-4.803
		c-0.362,1.349-0.827,2.231-1.317,2.713c-0.331-0.972-0.283-1.675,0.011-3.187l-2.968,1.06c1.577,2.155,3.104,5.188,4.36,10.475
		C10.292,29.367,15.254,29.01,20.496,29.01"/>
</g>
</svg>
