<?xml version="1.0" encoding="utf-8"?>
<!-- Generator: Adobe Illustrator 16.0.0, SVG Export Plug-In . SVG Version: 6.00 Build 0)  -->
<!DOCTYPE svg PUBLIC "-//W3C//DTD SVG 1.1//EN" "http://www.w3.org/Graphics/SVG/1.1/DTD/svg11.dtd">
<svg version="1.1" id="Layer_1" xmlns="http://www.w3.org/2000/svg" xmlns:xlink="http://www.w3.org/1999/xlink" x="0px" y="0px"
	 width="322px" height="40px" viewBox="0 0 322 40" style="enable-background:new 0 0 322 40;" xml:space="preserve">
<style type="text/css">
<![CDATA[
	.st0{clip-path:url(#SVGID_4_);fill:#001F5B;}
	.st1{clip-path:url(#SVGID_4_);fill:#008FBE;}
	.st2{clip-path:url(#SVGID_6_);fill:#001F5B;}
	.st3{fill:#001F5B;}
	.st4{fill:#008FBE;}
	.st5{clip-path:url(#SVGID_2_);fill:#001F5B;}
]]>
</style>
<g>
	<g>
		<defs>
			<rect id="SVGID_1_" x="0.031" width="320.789" height="39.97"/>
		</defs>
		<clipPath id="SVGID_2_">
			<use xlink:href="#SVGID_1_"  style="overflow:visible;"/>
		</clipPath>
		<path class="st5" d="M0.09,22.311c0.646,0.338,1.325,0.561,2.037,0.676c0.71,0.117,1.427,0.17,2.15,0.162
			c0.923,0.001,1.787-0.169,2.59-0.509c0.804-0.341,1.458-0.86,1.959-1.564c0.5-0.702,0.759-1.594,0.773-2.681
			c-0.033-1.194-0.378-2.103-1.032-2.728c-0.654-0.624-1.412-1.117-2.273-1.479c-0.861-0.361-1.618-0.746-2.272-1.149
			c-0.656-0.405-0.999-0.982-1.034-1.735C3.01,10.677,3.28,10.21,3.797,9.905c0.516-0.306,1.146-0.458,1.887-0.457
			c0.372,0.008,0.87,0.09,1.491,0.244c0.624,0.154,1.113,0.332,1.469,0.534l0.24-2.453c-0.548-0.166-1.104-0.307-1.67-0.418
			c-0.567-0.112-1.177-0.17-1.829-0.176C3.837,7.175,2.562,7.562,1.558,8.336C0.555,9.11,0.036,10.288,0,11.871
			c0.035,1.052,0.379,1.878,1.034,2.48c0.653,0.604,1.412,1.102,2.272,1.494c0.861,0.391,1.618,0.794,2.272,1.21
			c0.655,0.416,0.999,0.962,1.034,1.639c-0.039,0.81-0.357,1.38-0.954,1.71C5.06,20.732,4.42,20.89,3.737,20.877
			c-0.431,0-0.976-0.089-1.638-0.268c-0.661-0.18-1.28-0.449-1.86-0.808L0.09,22.311"/>
	</g>
	<path class="st3" d="M19.621,7.538h-4.04V3.111l-2.808,0.897v3.529H9.332v2.271h3.441v8.916c0.014,1.518,0.433,2.637,1.259,3.357
		c0.825,0.716,1.969,1.073,3.435,1.066c0.454-0.005,0.885-0.054,1.298-0.143c0.412-0.089,0.777-0.18,1.096-0.275v-2.39
		c-0.209,0.141-0.473,0.264-0.79,0.369c-0.317,0.107-0.692,0.162-1.126,0.168c-0.661-0.002-1.216-0.233-1.664-0.698
		c-0.449-0.463-0.682-1.136-0.7-2.023V9.808h4.04V7.538"/>
	<path class="st3" d="M35.145,7.538h-2.808v7.06c0.007,1.884-0.366,3.396-1.12,4.532c-0.752,1.137-1.925,1.719-3.52,1.748
		c-1.209-0.07-2.055-0.55-2.537-1.443c-0.483-0.891-0.716-2.225-0.696-4V7.538h-2.808v9.063c-0.01,2.065,0.45,3.669,1.375,4.81
		c0.925,1.143,2.372,1.721,4.338,1.737c1.085-0.008,2.079-0.255,2.982-0.739c0.901-0.484,1.574-1.164,2.015-2.039h0.061v2.418h2.719
		V7.538"/>
	<path class="st3" d="M49.243,22.789h2.689V0.359h-2.808v9.268h-0.061c-0.423-0.716-1.042-1.299-1.856-1.749
		c-0.812-0.453-1.88-0.684-3.201-0.699c-1.476,0.019-2.7,0.383-3.674,1.089c-0.975,0.708-1.703,1.642-2.184,2.804
		c-0.483,1.163-0.723,2.437-0.723,3.823c-0.004,1.411,0.221,2.74,0.675,3.989c0.455,1.248,1.164,2.263,2.13,3.048
		c0.966,0.787,2.214,1.191,3.746,1.217c1.362-0.035,2.477-0.311,3.345-0.828c0.868-0.52,1.489-1.08,1.863-1.682h0.06V22.789
		L49.243,22.789z M40.414,15.103c-0.024-0.945,0.104-1.846,0.381-2.702c0.277-0.856,0.729-1.557,1.352-2.103
		c0.625-0.548,1.442-0.831,2.456-0.849c1.018,0.018,1.86,0.303,2.53,0.858c0.668,0.553,1.167,1.265,1.496,2.134
		c0.331,0.868,0.495,1.787,0.495,2.753c0.003,0.871-0.15,1.739-0.459,2.604c-0.308,0.865-0.795,1.59-1.457,2.172
		c-0.661,0.583-1.518,0.886-2.574,0.908c-1.004-0.025-1.821-0.346-2.451-0.964c-0.628-0.616-1.086-1.366-1.374-2.248
		C40.522,16.782,40.391,15.929,40.414,15.103"/>
	<path class="st3" d="M66.927,19.352c-0.38,0.312-1.018,0.637-1.911,0.978c-0.893,0.338-1.822,0.521-2.786,0.55
		c-1.375-0.022-2.546-0.494-3.513-1.411c-0.969-0.918-1.473-2.143-1.517-3.679h10.892c0.01-1.65-0.194-3.121-0.614-4.412
		c-0.422-1.292-1.124-2.309-2.112-3.056c-0.984-0.746-2.32-1.127-4.005-1.143c-2.184,0.039-3.913,0.762-5.19,2.163
		c-1.276,1.403-1.93,3.253-1.958,5.551c-0.01,2.519,0.63,4.515,1.917,5.992c1.288,1.475,3.282,2.229,5.979,2.263
		c1.235-0.017,2.217-0.132,2.948-0.347c0.732-0.216,1.355-0.428,1.87-0.639V19.352L66.927,19.352z M57.201,13.699
		c0.067-0.674,0.248-1.334,0.546-1.981c0.295-0.646,0.735-1.18,1.315-1.606c0.579-0.427,1.327-0.647,2.24-0.664
		c1.219,0.032,2.155,0.448,2.81,1.25c0.655,0.801,0.984,1.802,0.992,3H57.201"/>
	<path class="st3" d="M70.356,22.789h2.808V15.73c-0.005-1.884,0.366-3.396,1.12-4.533c0.752-1.136,1.926-1.719,3.522-1.749
		c1.208,0.069,2.054,0.55,2.537,1.443c0.482,0.892,0.714,2.226,0.695,3.999v7.898h2.81v-9.063c0.008-2.065-0.451-3.668-1.375-4.81
		c-0.926-1.14-2.371-1.719-4.338-1.737c-1.085,0.008-2.079,0.255-2.981,0.739c-0.902,0.485-1.575,1.164-2.018,2.039h-0.059V7.538
		h-2.72V22.789"/>
	<path class="st3" d="M95.248,7.538h-4.039V3.111l-2.808,0.897v3.529h-3.44v2.271h3.44v8.916c0.014,1.518,0.432,2.637,1.259,3.357
		c0.823,0.716,1.968,1.073,3.434,1.066c0.454-0.005,0.884-0.054,1.297-0.143c0.412-0.089,0.778-0.18,1.096-0.275v-2.39
		c-0.209,0.141-0.472,0.264-0.79,0.369c-0.317,0.107-0.691,0.162-1.124,0.168c-0.663-0.002-1.218-0.233-1.665-0.698
		c-0.449-0.463-0.682-1.136-0.699-2.023V9.808h4.039V7.538"/>
	<path class="st3" d="M102.101,22.789h2.808V9.809h4.041V7.538h-4.041V5.891c-0.039-1.054,0.113-1.917,0.453-2.585
		c0.339-0.668,1.097-1.015,2.271-1.038c0.245,0,0.489,0.017,0.73,0.046c0.241,0.029,0.446,0.075,0.616,0.135l0.119-2.27
		c-0.281-0.047-0.577-0.088-0.886-0.124c-0.307-0.034-0.642-0.053-0.997-0.055c-2.034,0.023-3.403,0.582-4.116,1.674
		s-1.046,2.579-0.997,4.457v1.408H98.51v2.271h3.591V22.789"/>
	<path class="st3" d="M110.773,22.787h2.808V7.538h-2.808V22.787z M113.762,0.957h-3.167v3.167h3.167V0.957z"/>
	<path class="st3" d="M117.23,22.789h2.808V15.73c-0.008-1.884,0.366-3.396,1.118-4.533c0.754-1.136,1.927-1.719,3.522-1.749
		c1.208,0.069,2.053,0.55,2.536,1.443c0.482,0.892,0.714,2.226,0.697,3.999v7.898h2.808v-9.063c0.009-2.065-0.449-3.668-1.375-4.81
		c-0.927-1.14-2.373-1.719-4.336-1.737c-1.085,0.008-2.081,0.255-2.981,0.739c-0.903,0.485-1.575,1.164-2.019,2.039h-0.059V7.538
		h-2.718V22.789"/>
	<path class="st3" d="M134.883,11.004c0.581-0.484,1.262-0.863,2.045-1.138c0.781-0.273,1.575-0.412,2.382-0.418
		c1.388,0.002,2.37,0.336,2.941,1.003c0.574,0.666,0.849,1.659,0.832,2.978c-0.542-0.028-1.041-0.045-1.499-0.052
		c-0.456-0.006-0.956-0.007-1.496-0.006c-1.002-0.01-2.044,0.141-3.128,0.451c-1.083,0.31-2.007,0.833-2.768,1.568
		c-0.763,0.734-1.159,1.736-1.193,3.005c0.027,1.652,0.548,2.857,1.562,3.623c1.015,0.763,2.36,1.139,4.032,1.13
		c1.281-0.04,2.31-0.31,3.083-0.817c0.772-0.504,1.321-1.01,1.646-1.513h0.059v1.972h2.63c-0.032-0.211-0.059-0.549-0.083-1.014
		c-0.023-0.463-0.035-1.123-0.039-1.978V13.49c0.02-2.084-0.456-3.656-1.426-4.716c-0.968-1.061-2.536-1.593-4.704-1.596
		c-0.972,0.007-1.878,0.142-2.715,0.404c-0.838,0.261-1.608,0.605-2.311,1.029L134.883,11.004L134.883,11.004z M143.084,16.867
		c-0.005,1.162-0.363,2.116-1.082,2.859c-0.718,0.745-1.774,1.128-3.169,1.151c-0.682-0.002-1.317-0.213-1.904-0.635
		c-0.59-0.422-0.902-1.037-0.94-1.847c0.037-0.886,0.383-1.538,1.034-1.959c0.653-0.42,1.389-0.692,2.213-0.814
		c0.821-0.12,1.505-0.174,2.052-0.16c0.298,0.001,0.599,0.011,0.898,0.029c0.299,0.018,0.6,0.027,0.899,0.03V16.867"/>
	<path class="st3" d="M149.143,22.789h2.809V15.73c-0.008-1.884,0.365-3.396,1.119-4.533c0.754-1.136,1.926-1.719,3.52-1.749
		c1.21,0.069,2.057,0.55,2.539,1.443c0.482,0.892,0.712,2.226,0.695,3.999v7.898h2.809v-9.063c0.008-2.065-0.451-3.668-1.375-4.81
		c-0.926-1.14-2.373-1.719-4.337-1.737c-1.086,0.008-2.08,0.255-2.982,0.739c-0.901,0.485-1.574,1.164-2.016,2.039h-0.06V7.538
		h-2.72V22.789"/>
	<path class="st3" d="M175.859,7.773c-0.424-0.167-0.953-0.308-1.58-0.419c-0.633-0.112-1.242-0.169-1.832-0.175
		c-2.363,0.043-4.244,0.793-5.635,2.253c-1.395,1.46-2.107,3.371-2.139,5.73c0.012,1.475,0.342,2.812,0.992,4.012
		c0.65,1.2,1.557,2.159,2.721,2.874c1.162,0.715,2.516,1.082,4.061,1.099c0.52,0.007,1.092-0.029,1.711-0.112
		c0.621-0.082,1.227-0.253,1.822-0.514l-0.209-2.51c-0.447,0.283-0.939,0.5-1.479,0.645c-0.539,0.146-1.055,0.223-1.545,0.223
		c-1.201-0.021-2.178-0.313-2.928-0.877c-0.748-0.564-1.297-1.279-1.645-2.146c-0.346-0.866-0.516-1.764-0.514-2.693
		c0.004-0.983,0.193-1.908,0.574-2.771c0.379-0.865,0.934-1.565,1.664-2.107c0.73-0.541,1.619-0.82,2.668-0.836
		c0.453,0,0.939,0.053,1.459,0.16c0.52,0.109,1.053,0.274,1.594,0.499L175.859,7.773"/>
	<path class="st3" d="M189.428,19.352c-0.381,0.312-1.018,0.637-1.91,0.978c-0.893,0.338-1.822,0.521-2.785,0.55
		c-1.377-0.022-2.547-0.494-3.514-1.411c-0.969-0.918-1.473-2.143-1.516-3.679h10.891c0.01-1.65-0.193-3.121-0.615-4.412
		c-0.422-1.292-1.125-2.309-2.109-3.056c-0.986-0.746-2.322-1.127-4.006-1.143c-2.184,0.039-3.914,0.762-5.191,2.163
		c-1.275,1.403-1.928,3.253-1.957,5.551c-0.01,2.519,0.631,4.515,1.918,5.992c1.287,1.475,3.279,2.229,5.979,2.263
		c1.232-0.017,2.217-0.132,2.947-0.347c0.732-0.216,1.355-0.428,1.869-0.639V19.352L189.428,19.352z M179.703,13.699
		c0.064-0.674,0.246-1.334,0.545-1.981c0.297-0.646,0.732-1.18,1.316-1.606c0.578-0.427,1.326-0.647,2.24-0.664
		c1.217,0.032,2.154,0.448,2.809,1.25c0.656,0.801,0.984,1.802,0.992,3H179.703"/>
	<path class="st4" d="M207.547,19.352c-0.381,0.312-1.018,0.637-1.91,0.978c-0.893,0.338-1.822,0.521-2.789,0.55
		c-1.375-0.022-2.545-0.494-3.512-1.411c-0.967-0.918-1.475-2.143-1.518-3.679h10.893c0.012-1.65-0.193-3.121-0.615-4.412
		c-0.42-1.292-1.123-2.309-2.109-3.056c-0.984-0.746-2.32-1.127-4.006-1.143c-2.184,0.039-3.914,0.762-5.191,2.163
		c-1.275,1.403-1.928,3.253-1.959,5.551c-0.008,2.519,0.631,4.515,1.92,5.992c1.285,1.475,3.279,2.229,5.979,2.263
		c1.234-0.017,2.219-0.132,2.949-0.347c0.73-0.216,1.355-0.428,1.869-0.639V19.352L207.547,19.352z M197.818,13.699
		c0.068-0.674,0.248-1.334,0.547-1.981c0.297-0.646,0.736-1.18,1.314-1.606c0.58-0.427,1.328-0.647,2.24-0.664
		c1.221,0.032,2.156,0.448,2.813,1.25c0.654,0.801,0.984,1.802,0.99,3H197.818"/>
	<path class="st4" d="M210.678,22.789h2.807V15.73c-0.008-1.884,0.367-3.396,1.119-4.533c0.752-1.136,1.926-1.719,3.521-1.749
		c1.209,0.069,2.055,0.55,2.537,1.443c0.482,0.892,0.715,2.226,0.695,3.999v7.898h2.809v-9.063c0.01-2.065-0.449-3.668-1.375-4.81
		c-0.926-1.14-2.373-1.719-4.336-1.737c-1.086,0.008-2.082,0.255-2.982,0.739c-0.902,0.485-1.574,1.164-2.018,2.039h-0.059V7.538
		h-2.719V22.789"/>
	<path class="st4" d="M240.654,7.538h-2.598v2.271h-0.061c-0.408-0.829-1.016-1.473-1.818-1.93
		c-0.805-0.459-1.873-0.692-3.211-0.699c-1.535,0.027-2.807,0.437-3.816,1.229c-1.008,0.793-1.762,1.804-2.26,3.032
		c-0.496,1.228-0.744,2.508-0.742,3.844c0,1.334,0.238,2.569,0.719,3.7c0.48,1.131,1.205,2.044,2.17,2.737
		c0.963,0.692,2.174,1.049,3.631,1.066c0.988,0.004,1.936-0.193,2.838-0.584c0.906-0.392,1.664-0.984,2.279-1.773h0.061v1.494
		c-0.012,1.631-0.43,2.908-1.252,3.829c-0.826,0.922-1.984,1.391-3.477,1.406c-0.998,0.004-1.906-0.102-2.721-0.317
		s-1.742-0.569-2.783-1.06l-0.301,2.602c1.201,0.408,2.215,0.688,3.051,0.836s1.643,0.219,2.424,0.21
		c2.723-0.015,4.719-0.651,5.988-1.91c1.266-1.259,1.895-3.055,1.879-5.387V7.538L240.654,7.538z M233.385,20.521
		c-1.328-0.046-2.365-0.585-3.111-1.617s-1.125-2.289-1.137-3.77c0-0.89,0.154-1.766,0.469-2.631
		c0.314-0.865,0.785-1.584,1.416-2.16c0.627-0.573,1.418-0.872,2.363-0.894c1.498,0.047,2.613,0.633,3.354,1.757
		c0.74,1.125,1.109,2.504,1.107,4.138c-0.023,1.459-0.436,2.677-1.242,3.655C235.797,19.974,234.725,20.482,233.385,20.521"/>
	<rect x="244.012" y="0.358" class="st4" width="2.809" height="22.429"/>
	<path class="st4" d="M251.033,11.004c0.582-0.484,1.266-0.863,2.045-1.138c0.783-0.273,1.576-0.412,2.385-0.418
		c1.387,0.002,2.369,0.336,2.941,1.003c0.57,0.666,0.848,1.659,0.83,2.978c-0.539-0.028-1.041-0.045-1.496-0.052
		c-0.459-0.006-0.957-0.007-1.498-0.006c-1.002-0.01-2.043,0.141-3.129,0.451c-1.084,0.31-2.006,0.833-2.768,1.568
		c-0.76,0.734-1.16,1.736-1.191,3.005c0.025,1.652,0.547,2.857,1.561,3.623c1.016,0.763,2.357,1.139,4.029,1.13
		c1.285-0.04,2.313-0.31,3.084-0.817c0.773-0.504,1.32-1.01,1.646-1.513h0.059v1.972h2.631c-0.029-0.211-0.059-0.549-0.082-1.014
		c-0.023-0.463-0.037-1.123-0.037-1.978V13.49c0.018-2.084-0.457-3.656-1.428-4.716c-0.971-1.061-2.539-1.593-4.705-1.596
		c-0.973,0.007-1.875,0.142-2.717,0.404c-0.836,0.261-1.607,0.605-2.309,1.029L251.033,11.004L251.033,11.004z M259.234,16.867
		c-0.002,1.162-0.363,2.116-1.082,2.859c-0.717,0.745-1.775,1.128-3.17,1.151c-0.68-0.002-1.314-0.213-1.904-0.635
		c-0.588-0.422-0.9-1.037-0.938-1.847c0.037-0.886,0.381-1.538,1.033-1.959c0.652-0.42,1.391-0.692,2.211-0.814
		c0.822-0.12,1.508-0.174,2.053-0.16c0.301,0.001,0.6,0.011,0.898,0.029c0.299,0.018,0.6,0.027,0.898,0.03V16.867"/>
	<path class="st4" d="M264.994,22.789h2.811V15.73c-0.008-1.884,0.365-3.396,1.117-4.533c0.754-1.136,1.926-1.719,3.521-1.749
		c1.209,0.069,2.053,0.55,2.537,1.443c0.482,0.892,0.715,2.226,0.695,3.999v7.898h2.809v-9.063c0.01-2.065-0.449-3.668-1.375-4.81
		c-0.926-1.14-2.371-1.719-4.338-1.737c-1.084,0.008-2.078,0.255-2.98,0.739c-0.902,0.485-1.574,1.164-2.018,2.039h-0.059V7.538
		h-2.721V22.789"/>
	<g>
		<defs>
			<rect id="SVGID_3_" width="320.82" height="40"/>
		</defs>
		<clipPath id="SVGID_4_">
			<use xlink:href="#SVGID_3_"  style="overflow:visible;"/>
		</clipPath>
		<path class="st1" d="M292.283,22.789h2.691V0.359h-2.811v9.268h-0.061c-0.424-0.716-1.041-1.299-1.855-1.749
			c-0.813-0.453-1.881-0.684-3.201-0.699c-1.477,0.019-2.701,0.383-3.676,1.089c-0.975,0.708-1.701,1.642-2.184,2.804
			c-0.482,1.163-0.723,2.437-0.723,3.823c-0.004,1.411,0.221,2.74,0.676,3.989c0.453,1.248,1.164,2.263,2.131,3.048
			c0.963,0.787,2.213,1.191,3.744,1.217c1.363-0.035,2.477-0.311,3.346-0.828c0.867-0.52,1.49-1.08,1.863-1.682h0.059V22.789
			L292.283,22.789z M283.453,15.103c-0.023-0.945,0.105-1.846,0.381-2.702c0.277-0.856,0.73-1.557,1.355-2.103
			c0.621-0.548,1.439-0.831,2.455-0.849c1.018,0.018,1.859,0.303,2.527,0.858c0.67,0.553,1.17,1.265,1.5,2.134
			c0.328,0.868,0.492,1.787,0.492,2.753c0.004,0.871-0.148,1.739-0.459,2.604s-0.795,1.59-1.457,2.172
			c-0.662,0.583-1.52,0.886-2.574,0.908c-1.004-0.025-1.822-0.346-2.449-0.964c-0.631-0.616-1.088-1.366-1.375-2.248
			C283.563,16.782,283.43,15.929,283.453,15.103"/>
		<path class="st0" d="M320.857,25.107c0,6.53-30.67,11.825-68.502,11.825c-25.178,0-47.178-2.345-59.086-5.838
			c12.332,2.064,29.141,3.334,47.666,3.334c37.834,0,68.504-5.295,68.504-11.827c0-2.186-3.432-4.231-9.422-5.988
			C312.871,18.763,320.857,21.773,320.857,25.107"/>
	</g>
</g>
</svg>
