<?xml version="1.0" encoding="utf-8"?>
<!-- Generator: Adobe Illustrator 16.0.0, SVG Export Plug-In . SVG Version: 6.00 Build 0)  -->
<!DOCTYPE svg PUBLIC "-//W3C//DTD SVG 1.1//EN" "http://www.w3.org/Graphics/SVG/1.1/DTD/svg11.dtd">
<svg version="1.1" id="Layer_1" xmlns="http://www.w3.org/2000/svg" xmlns:xlink="http://www.w3.org/1999/xlink" x="0px" y="0px"
	 width="300px" height="60px" viewBox="0 0 300 60" style="enable-background:new 0 0 300 60;" xml:space="preserve">
<style type="text/css">
<![CDATA[
	.st0{fill:#FFFFFF;}
	.st1{clip-path:url(#SVGID_2_);fill:#FFFFFF;}
	.st2{fill-rule:evenodd;clip-rule:evenodd;fill:#FFFFFF;}
]]>
</style>
<g>
	<path class="st0" d="M42.582,39.186c0.696,0.358,1.427,0.598,2.193,0.722s1.538,0.18,2.316,0.171
		c0.995,0.001,1.925-0.179,2.792-0.542c0.866-0.364,1.569-0.92,2.109-1.669c0.54-0.75,0.818-1.705,0.835-2.863
		c-0.037-1.273-0.408-2.246-1.113-2.912c-0.705-0.667-1.521-1.194-2.449-1.58c-0.927-0.386-1.744-0.795-2.448-1.226
		c-0.705-0.432-1.076-1.05-1.113-1.852c0.024-0.67,0.315-1.168,0.871-1.494c0.557-0.327,1.234-0.488,2.033-0.487
		c0.401,0.008,0.937,0.095,1.607,0.259c0.67,0.165,1.197,0.355,1.582,0.572l0.258-2.62c-0.589-0.178-1.189-0.328-1.799-0.447
		s-1.267-0.182-1.97-0.187c-1.667-0.003-3.041,0.409-4.122,1.236c-1.081,0.826-1.641,2.085-1.679,3.774
		c0.037,1.121,0.408,2.004,1.113,2.647c0.705,0.643,1.521,1.175,2.449,1.594c0.927,0.418,1.743,0.849,2.449,1.293
		c0.704,0.445,1.076,1.027,1.113,1.75c-0.043,0.865-0.386,1.473-1.029,1.824c-0.643,0.351-1.333,0.52-2.069,0.507
		c-0.463,0-1.052-0.095-1.765-0.288c-0.712-0.192-1.379-0.479-2.004-0.862L42.582,39.186L42.582,39.186z"/>
	<path class="st0" d="M65.231,23.414H60.88v-4.725l-3.025,0.958v3.767h-3.707v2.423h3.707v9.52c0.015,1.621,0.467,2.815,1.356,3.582
		s2.123,1.146,3.7,1.14c0.488-0.006,0.954-0.057,1.397-0.152c0.444-0.094,0.838-0.192,1.181-0.294v-2.552
		c-0.225,0.15-0.509,0.281-0.851,0.396c-0.341,0.114-0.746,0.173-1.212,0.18c-0.712-0.003-1.31-0.252-1.793-0.747
		s-0.734-1.214-0.753-2.16v-8.913h4.351V23.414L65.231,23.414z"/>
	<path class="st0" d="M82.923,23.414h-3.025v7.536c0.007,2.011-0.395,3.625-1.206,4.838c-0.811,1.213-2.075,1.835-3.793,1.868
		c-1.302-0.075-2.213-0.587-2.732-1.541c-0.52-0.953-0.77-2.376-0.75-4.271v-8.431h-3.026v9.676
		c-0.009,2.205,0.485,3.916,1.482,5.135s2.554,1.836,4.672,1.854c1.169-0.008,2.24-0.271,3.212-0.789s1.696-1.244,2.172-2.177h0.065
		v2.583h2.929V23.414L82.923,23.414z"/>
	<path class="st2" d="M99.078,39.695h2.896V15.75h-3.026v9.895h-0.064c-0.457-0.765-1.123-1.387-1.999-1.869
		c-0.876-0.481-2.026-0.729-3.45-0.745c-1.59,0.021-2.909,0.408-3.958,1.163c-1.049,0.755-1.833,1.753-2.353,2.994
		c-0.519,1.24-0.778,2.601-0.777,4.08c-0.005,1.507,0.237,2.927,0.726,4.258c0.489,1.333,1.254,2.418,2.294,3.256
		c1.041,0.839,2.386,1.271,4.036,1.298c1.467-0.035,2.668-0.331,3.603-0.885c0.935-0.553,1.604-1.152,2.007-1.794h0.064V39.695
		L99.078,39.695z M89.566,31.491c-0.026-1.009,0.111-1.972,0.411-2.885c0.299-0.914,0.784-1.663,1.457-2.246
		c0.671-0.584,1.554-0.886,2.646-0.906c1.096,0.02,2.004,0.324,2.724,0.916c0.721,0.591,1.259,1.35,1.613,2.279
		c0.355,0.929,0.533,1.907,0.531,2.938c0.004,0.93-0.161,1.857-0.494,2.78c-0.333,0.924-0.857,1.697-1.569,2.319
		c-0.713,0.622-1.637,0.946-2.773,0.97c-1.082-0.028-1.962-0.372-2.641-1.031c-0.678-0.658-1.171-1.458-1.479-2.4
		C89.684,33.282,89.542,32.372,89.566,31.491L89.566,31.491z"/>
	<path class="st2" d="M119.095,36.026c-0.41,0.334-1.096,0.681-2.058,1.043c-0.962,0.361-1.962,0.557-3.002,0.587
		c-1.481-0.024-2.743-0.526-3.785-1.506c-1.042-0.979-1.586-2.289-1.632-3.926h11.732c0.013-1.763-0.208-3.333-0.662-4.711
		c-0.453-1.378-1.211-2.466-2.273-3.264c-1.062-0.796-2.5-1.203-4.315-1.219c-2.353,0.042-4.216,0.812-5.592,2.31
		c-1.375,1.498-2.079,3.474-2.109,5.926c-0.011,2.688,0.678,4.818,2.065,6.395c1.387,1.576,3.534,2.382,6.442,2.417
		c1.329-0.018,2.387-0.142,3.175-0.371c0.788-0.229,1.459-0.456,2.013-0.681V36.026L119.095,36.026z M108.618,29.992
		c0.071-0.721,0.266-1.425,0.586-2.114c0.321-0.689,0.793-1.262,1.418-1.717c0.625-0.455,1.429-0.691,2.414-0.708
		c1.313,0.033,2.322,0.478,3.027,1.334c0.705,0.856,1.061,1.925,1.068,3.205H108.618L108.618,29.992z"/>
	<path class="st0" d="M123.433,39.695h3.025V32.16c-0.007-2.012,0.395-3.625,1.206-4.838s2.075-1.836,3.793-1.868
		c1.302,0.074,2.213,0.588,2.733,1.541c0.52,0.953,0.77,2.376,0.75,4.271v8.43h3.025V30.02c0.01-2.205-0.484-3.917-1.481-5.135
		c-0.997-1.218-2.555-1.836-4.672-1.854c-1.169,0.008-2.24,0.271-3.212,0.79c-0.973,0.518-1.696,1.244-2.173,2.176h-0.064v-2.583
		h-2.929V39.695L123.433,39.695z"/>
	<path class="st0" d="M151.216,23.414h-4.352v-4.725l-3.025,0.958v3.767h-3.707v2.423h3.707v9.52
		c0.015,1.621,0.467,2.815,1.356,3.582c0.889,0.767,2.122,1.146,3.7,1.14c0.488-0.006,0.955-0.057,1.397-0.152
		c0.444-0.094,0.838-0.192,1.181-0.294v-2.552c-0.225,0.15-0.509,0.281-0.85,0.396c-0.342,0.114-0.746,0.173-1.213,0.18
		c-0.712-0.003-1.31-0.252-1.793-0.747s-0.734-1.214-0.753-2.16v-8.913h4.352V23.414L151.216,23.414z"/>
	<path class="st0" d="M156.986,39.695h3.025V25.836h4.351v-2.423h-4.351v-1.757c-0.041-1.126,0.121-2.047,0.487-2.761
		c0.366-0.714,1.181-1.083,2.445-1.106c0.265,0,0.526,0.016,0.787,0.048c0.259,0.031,0.481,0.08,0.665,0.144l0.128-2.424
		c-0.304-0.049-0.623-0.093-0.954-0.131c-0.333-0.038-0.692-0.057-1.077-0.06c-2.188,0.024-3.666,0.62-4.432,1.786
		c-0.767,1.167-1.126,2.753-1.075,4.759v1.501h-3.868v2.423h3.868V39.695L156.986,39.695z"/>
	<path class="st2" d="M167.94,39.695h3.025V23.414h-3.025V39.695L167.94,39.695z M171.159,16.389h-3.413v3.38h3.413V16.389
		L171.159,16.389z"/>
	<path class="st0" d="M175.862,39.695h3.025V32.16c-0.007-2.012,0.394-3.625,1.204-4.838c0.811-1.213,2.076-1.836,3.793-1.868
		c1.303,0.074,2.213,0.588,2.733,1.541c0.52,0.953,0.771,2.376,0.751,4.271v8.43h3.025V30.02c0.009-2.205-0.484-3.917-1.482-5.135
		c-0.997-1.218-2.553-1.836-4.671-1.854c-1.17,0.008-2.24,0.271-3.213,0.79c-0.972,0.518-1.697,1.244-2.172,2.176h-0.065v-2.583
		h-2.929V39.695L175.862,39.695z"/>
	<path class="st2" d="M195.846,27.114c0.627-0.516,1.361-0.92,2.202-1.213c0.842-0.292,1.698-0.441,2.567-0.447
		c1.495,0,2.552,0.358,3.168,1.07c0.617,0.711,0.915,1.772,0.896,3.181c-0.582-0.031-1.12-0.049-1.613-0.056
		c-0.493-0.007-1.031-0.008-1.613-0.008c-1.078-0.009-2.202,0.151-3.369,0.482c-1.168,0.33-2.161,0.889-2.981,1.674
		c-0.82,0.784-1.25,1.854-1.286,3.207c0.03,1.762,0.591,3.05,1.682,3.867c1.093,0.815,2.541,1.218,4.343,1.208
		c1.381-0.042,2.489-0.333,3.321-0.873c0.833-0.54,1.425-1.078,1.773-1.613H205v2.103h2.833c-0.033-0.227-0.063-0.587-0.088-1.082
		c-0.024-0.495-0.038-1.198-0.04-2.111v-6.734c0.018-2.224-0.495-3.902-1.538-5.035c-1.044-1.132-2.733-1.7-5.068-1.703
		c-1.048,0.008-2.023,0.151-2.926,0.43s-1.732,0.646-2.489,1.1L195.846,27.114L195.846,27.114z M204.68,33.373
		c-0.004,1.241-0.392,2.259-1.166,3.052c-0.773,0.794-1.911,1.204-3.415,1.231c-0.733-0.002-1.417-0.229-2.051-0.679
		c-0.633-0.451-0.97-1.109-1.011-1.973c0.039-0.944,0.411-1.641,1.113-2.09c0.703-0.45,1.497-0.739,2.383-0.869
		c0.885-0.129,1.622-0.187,2.21-0.172c0.322,0.002,0.645,0.013,0.968,0.031c0.322,0.019,0.645,0.029,0.968,0.032V33.373
		L204.68,33.373z"/>
	<path class="st0" d="M211.53,39.695h3.025V32.16c-0.008-2.012,0.395-3.625,1.206-4.838c0.811-1.213,2.075-1.836,3.793-1.868
		c1.302,0.074,2.213,0.588,2.733,1.541c0.52,0.953,0.769,2.376,0.75,4.271v8.43h3.025V30.02c0.01-2.205-0.484-3.917-1.48-5.135
		c-0.998-1.218-2.555-1.836-4.673-1.854c-1.17,0.008-2.24,0.271-3.213,0.79c-0.972,0.518-1.696,1.244-2.172,2.176h-0.065v-2.583
		h-2.929V39.695L211.53,39.695z"/>
	<path class="st0" d="M240.956,23.665c-0.457-0.178-1.025-0.328-1.705-0.447c-0.681-0.12-1.334-0.182-1.969-0.187
		c-2.549,0.045-4.573,0.847-6.073,2.405c-1.5,1.558-2.268,3.598-2.303,6.118c0.011,1.574,0.366,3.002,1.067,4.284
		c0.702,1.281,1.679,2.304,2.932,3.067c1.252,0.764,2.712,1.155,4.377,1.174c0.56,0.008,1.17-0.032,1.839-0.12
		c0.671-0.087,1.324-0.27,1.964-0.549l-0.226-2.679c-0.479,0.304-1.01,0.534-1.592,0.691c-0.583,0.156-1.136,0.234-1.663,0.235
		c-1.296-0.021-2.347-0.333-3.154-0.936c-0.808-0.602-1.399-1.365-1.772-2.291c-0.374-0.926-0.558-1.883-0.553-2.875
		c0.003-1.05,0.208-2.036,0.618-2.958c0.41-0.922,1.007-1.672,1.794-2.249c0.786-0.578,1.743-0.875,2.874-0.894
		c0.488,0,1.01,0.057,1.569,0.171c0.561,0.116,1.135,0.293,1.718,0.532L240.956,23.665L240.956,23.665z"/>
	<path class="st2" d="M256.541,36.026c-0.41,0.334-1.098,0.681-2.059,1.043c-0.961,0.361-1.963,0.557-3.002,0.587
		c-1.48-0.024-2.744-0.526-3.784-1.506c-1.042-0.979-1.587-2.289-1.633-3.926h11.733c0.012-1.763-0.209-3.333-0.662-4.711
		c-0.455-1.378-1.213-2.466-2.273-3.264c-1.063-0.796-2.502-1.203-4.314-1.219c-2.354,0.042-4.217,0.812-5.593,2.31
		c-1.375,1.498-2.079,3.474-2.109,5.926c-0.011,2.688,0.678,4.818,2.065,6.395s3.535,2.382,6.441,2.417
		c1.33-0.018,2.389-0.142,3.176-0.371c0.789-0.229,1.459-0.456,2.014-0.681V36.026L256.541,36.026z M246.063,29.992
		c0.071-0.721,0.267-1.425,0.586-2.114c0.322-0.689,0.793-1.262,1.418-1.717c0.625-0.455,1.428-0.691,2.415-0.708
		c1.313,0.033,2.32,0.478,3.025,1.334c0.705,0.856,1.063,1.925,1.068,3.205H246.063L246.063,29.992z"/>
	<g>
		<defs>
			<path id="SVGID_1_" d="M0,31.75C0,14.215,29.78,0,66.516,0C80.923,0,94.26,2.187,105.15,5.901C96.04,3.664,85.707,2.4,74.756,2.4
				C38.02,2.4,8.239,16.615,8.239,34.151c0,10.659,11.003,20.09,27.882,25.849C14.671,54.731,0,44.059,0,31.75L0,31.75z"/>
		</defs>
		<use xlink:href="#SVGID_1_"  style="overflow:visible;fill:#FFFFFF;"/>
		<clipPath id="SVGID_2_">
			<use xlink:href="#SVGID_1_"  style="overflow:visible;"/>
		</clipPath>
		<rect x="-0.158" y="-0.017" class="st1" width="0.741" height="60.013"/>
		<rect x="0.612" y="-0.017" class="st1" width="0.741" height="60.013"/>
		<rect x="1.382" y="-0.017" class="st1" width="0.741" height="60.013"/>
		<rect x="2.153" y="-0.017" class="st1" width="0.741" height="60.013"/>
		<rect x="2.923" y="-0.017" class="st1" width="0.742" height="60.013"/>
		<rect x="3.693" y="-0.017" class="st1" width="0.741" height="60.013"/>
		<rect x="4.464" y="-0.017" class="st1" width="0.741" height="60.013"/>
		<rect x="5.234" y="-0.017" class="st1" width="0.741" height="60.013"/>
		<rect x="6.004" y="-0.017" class="st1" width="0.741" height="60.013"/>
		<rect x="6.775" y="-0.017" class="st1" width="0.741" height="60.013"/>
		<rect x="7.545" y="-0.017" class="st1" width="0.741" height="60.013"/>
		<rect x="8.315" y="-0.017" class="st1" width="0.741" height="60.013"/>
		<rect x="9.085" y="-0.017" class="st1" width="0.741" height="60.013"/>
		<rect x="9.855" y="-0.017" class="st1" width="0.742" height="60.013"/>
		<rect x="10.626" y="-0.017" class="st1" width="0.741" height="60.013"/>
		<rect x="11.397" y="-0.017" class="st1" width="0.741" height="60.013"/>
		<rect x="12.167" y="-0.017" class="st1" width="0.742" height="60.013"/>
		<rect x="12.937" y="-0.017" class="st1" width="0.741" height="60.013"/>
		<rect x="13.708" y="-0.017" class="st1" width="0.741" height="60.013"/>
		<rect x="14.478" y="-0.017" class="st1" width="0.741" height="60.013"/>
		<rect x="15.248" y="-0.017" class="st1" width="0.741" height="60.013"/>
		<rect x="16.019" y="-0.017" class="st1" width="0.741" height="60.013"/>
		<rect x="16.789" y="-0.017" class="st1" width="0.741" height="60.013"/>
		<rect x="17.559" y="-0.017" class="st1" width="0.74" height="60.013"/>
		<rect x="18.329" y="-0.017" class="st1" width="0.741" height="60.013"/>
		<rect x="19.099" y="-0.017" class="st1" width="0.742" height="60.013"/>
		<rect x="19.87" y="-0.017" class="st1" width="0.741" height="60.013"/>
		<rect x="20.641" y="-0.017" class="st1" width="0.741" height="60.013"/>
		<rect x="21.411" y="-0.017" class="st1" width="0.741" height="60.013"/>
		<rect x="22.18" y="-0.017" class="st1" width="0.741" height="60.013"/>
		<rect x="22.951" y="-0.017" class="st1" width="0.741" height="60.013"/>
		<rect x="23.721" y="-0.017" class="st1" width="0.741" height="60.013"/>
		<rect x="24.492" y="-0.017" class="st1" width="0.741" height="60.013"/>
		<rect x="25.262" y="-0.017" class="st1" width="0.741" height="60.013"/>
		<rect x="26.032" y="-0.017" class="st1" width="0.741" height="60.013"/>
		<rect x="26.802" y="-0.017" class="st1" width="0.741" height="60.013"/>
		<rect x="27.573" y="-0.017" class="st1" width="0.741" height="60.013"/>
		<rect x="28.343" y="-0.017" class="st1" width="0.741" height="60.013"/>
		<rect x="29.113" y="-0.017" class="st1" width="0.741" height="60.013"/>
		<rect x="29.884" y="-0.017" class="st1" width="0.74" height="60.013"/>
		<rect x="30.654" y="-0.017" class="st1" width="0.741" height="60.013"/>
		<rect x="31.424" y="-0.017" class="st1" width="0.741" height="60.013"/>
		<rect x="32.195" y="-0.017" class="st1" width="0.741" height="60.013"/>
		<rect x="32.965" y="-0.017" class="st1" width="0.742" height="60.013"/>
		<rect x="33.735" y="-0.017" class="st1" width="0.741" height="60.013"/>
		<rect x="34.506" y="-0.017" class="st1" width="0.74" height="60.013"/>
		<rect x="35.275" y="-0.017" class="st1" width="0.742" height="60.013"/>
		<rect x="36.046" y="-0.017" class="st1" width="0.741" height="60.013"/>
		<rect x="36.817" y="-0.017" class="st1" width="0.741" height="60.013"/>
		<rect x="37.587" y="-0.017" class="st1" width="0.741" height="60.013"/>
		<rect x="38.357" y="-0.017" class="st1" width="0.741" height="60.013"/>
		<rect x="39.127" y="-0.017" class="st1" width="0.741" height="60.013"/>
		<rect x="39.897" y="-0.017" class="st1" width="0.741" height="60.013"/>
		<rect x="40.668" y="-0.017" class="st1" width="0.741" height="60.013"/>
		<rect x="41.438" y="-0.017" class="st1" width="0.741" height="60.013"/>
		<rect x="42.208" y="-0.017" class="st1" width="0.742" height="60.013"/>
		<rect x="42.979" y="-0.017" class="st1" width="0.741" height="60.013"/>
		<rect x="43.75" y="-0.017" class="st1" width="0.741" height="60.013"/>
		<rect x="44.52" y="-0.017" class="st1" width="0.741" height="60.013"/>
		<rect x="45.29" y="-0.017" class="st1" width="0.741" height="60.013"/>
		<rect x="46.061" y="-0.017" class="st1" width="0.741" height="60.013"/>
		<rect x="46.831" y="-0.017" class="st1" width="0.741" height="60.013"/>
		<rect x="47.601" y="-0.017" class="st1" width="0.74" height="60.013"/>
		<rect x="48.371" y="-0.017" class="st1" width="0.741" height="60.013"/>
		<rect x="49.141" y="-0.017" class="st1" width="0.742" height="60.013"/>
		<rect x="49.912" y="-0.017" class="st1" width="0.741" height="60.013"/>
		<rect x="50.683" y="-0.017" class="st1" width="0.741" height="60.013"/>
		<rect x="51.453" y="-0.017" class="st1" width="0.741" height="60.013"/>
		<rect x="52.223" y="-0.017" class="st1" width="0.741" height="60.013"/>
		<rect x="52.993" y="-0.017" class="st1" width="0.741" height="60.013"/>
		<rect x="53.763" y="-0.017" class="st1" width="0.741" height="60.013"/>
		<rect x="54.534" y="-0.017" class="st1" width="0.741" height="60.013"/>
		<rect x="55.304" y="-0.017" class="st1" width="0.741" height="60.013"/>
		<rect x="56.074" y="-0.017" class="st1" width="0.741" height="60.013"/>
		<rect x="56.844" y="-0.017" class="st1" width="0.741" height="60.013"/>
		<rect x="57.615" y="-0.017" class="st1" width="0.741" height="60.013"/>
		<rect x="58.385" y="-0.017" class="st1" width="0.742" height="60.013"/>
		<rect x="59.155" y="-0.017" class="st1" width="0.741" height="60.013"/>
		<rect x="59.926" y="-0.017" class="st1" width="0.741" height="60.013"/>
		<rect x="60.696" y="-0.017" class="st1" width="0.741" height="60.013"/>
		<rect x="61.466" y="-0.017" class="st1" width="0.741" height="60.013"/>
		<rect x="62.237" y="-0.017" class="st1" width="0.741" height="60.013"/>
		<rect x="63.007" y="-0.017" class="st1" width="0.741" height="60.013"/>
		<rect x="63.778" y="-0.017" class="st1" width="0.741" height="60.013"/>
		<rect x="64.548" y="-0.017" class="st1" width="0.741" height="60.013"/>
		<rect x="65.318" y="-0.017" class="st1" width="0.741" height="60.013"/>
		<rect x="66.088" y="-0.017" class="st1" width="0.741" height="60.013"/>
		<rect x="66.859" y="-0.017" class="st1" width="0.741" height="60.013"/>
		<rect x="67.629" y="-0.017" class="st1" width="0.741" height="60.013"/>
		<rect x="68.399" y="-0.017" class="st1" width="0.741" height="60.013"/>
		<rect x="69.17" y="-0.017" class="st1" width="0.741" height="60.013"/>
		<rect x="69.939" y="-0.017" class="st1" width="0.741" height="60.013"/>
		<rect x="70.71" y="-0.017" class="st1" width="0.741" height="60.013"/>
		<rect x="71.48" y="-0.017" class="st1" width="0.741" height="60.013"/>
		<rect x="72.25" y="-0.017" class="st1" width="0.742" height="60.013"/>
		<rect x="73.021" y="-0.017" class="st1" width="0.741" height="60.013"/>
		<rect x="73.792" y="-0.017" class="st1" width="0.741" height="60.013"/>
		<rect x="74.562" y="-0.017" class="st1" width="0.741" height="60.013"/>
		<rect x="75.332" y="-0.017" class="st1" width="0.741" height="60.013"/>
		<rect x="76.103" y="-0.017" class="st1" width="0.741" height="60.013"/>
		<rect x="76.873" y="-0.017" class="st1" width="0.741" height="60.013"/>
		<rect x="77.643" y="-0.017" class="st1" width="0.741" height="60.013"/>
		<rect x="78.413" y="-0.017" class="st1" width="0.741" height="60.013"/>
		<rect x="79.183" y="-0.017" class="st1" width="0.741" height="60.013"/>
		<rect x="79.954" y="-0.017" class="st1" width="0.741" height="60.013"/>
		<rect x="80.725" y="-0.017" class="st1" width="0.741" height="60.013"/>
		<rect x="81.494" y="-0.017" class="st1" width="0.742" height="60.013"/>
		<rect x="82.265" y="-0.017" class="st1" width="0.741" height="60.013"/>
		<rect x="83.035" y="-0.017" class="st1" width="0.741" height="60.013"/>
		<rect x="83.805" y="-0.017" class="st1" width="0.741" height="60.013"/>
		<rect x="84.576" y="-0.017" class="st1" width="0.741" height="60.013"/>
		<rect x="85.346" y="-0.017" class="st1" width="0.741" height="60.013"/>
		<rect x="86.116" y="-0.017" class="st1" width="0.741" height="60.013"/>
		<rect x="86.887" y="-0.017" class="st1" width="0.741" height="60.013"/>
		<rect x="87.657" y="-0.017" class="st1" width="0.741" height="60.013"/>
		<rect x="88.427" y="-0.017" class="st1" width="0.742" height="60.013"/>
		<rect x="89.198" y="-0.017" class="st1" width="0.741" height="60.013"/>
		<rect x="89.968" y="-0.017" class="st1" width="0.741" height="60.013"/>
		<rect x="90.738" y="-0.017" class="st1" width="0.741" height="60.013"/>
		<rect x="91.508" y="-0.017" class="st1" width="0.741" height="60.013"/>
		<rect x="92.279" y="-0.017" class="st1" width="0.741" height="60.013"/>
		<rect x="93.049" y="-0.017" class="st1" width="0.741" height="60.013"/>
		<rect x="93.82" y="-0.017" class="st1" width="0.741" height="60.013"/>
		<rect x="94.59" y="-0.017" class="st1" width="0.741" height="60.013"/>
		<rect x="95.36" y="-0.017" class="st1" width="0.741" height="60.013"/>
		<rect x="96.13" y="-0.017" class="st1" width="0.741" height="60.013"/>
		<rect x="96.901" y="-0.017" class="st1" width="0.741" height="60.013"/>
		<rect x="97.671" y="-0.017" class="st1" width="0.741" height="60.013"/>
		<rect x="98.441" y="-0.017" class="st1" width="0.741" height="60.013"/>
		<rect x="99.212" y="-0.017" class="st1" width="0.741" height="60.013"/>
		<rect x="99.982" y="-0.017" class="st1" width="0.741" height="60.013"/>
		<rect x="100.752" y="-0.017" class="st1" width="0.741" height="60.013"/>
		<rect x="101.522" y="-0.017" class="st1" width="0.741" height="60.013"/>
		<rect x="102.292" y="-0.017" class="st1" width="0.742" height="60.013"/>
		<rect x="103.063" y="-0.017" class="st1" width="0.741" height="60.013"/>
		<rect x="103.833" y="-0.017" class="st1" width="0.741" height="60.013"/>
		<rect x="104.603" y="-0.017" class="st1" width="0.742" height="60.013"/>
		<rect x="104.964" y="-0.017" class="st1" width="0.186" height="60.013"/>
	</g>
	<path class="st0" d="M265.295,39.609l-0.289-0.375c0.963-2.925,1.818-6.296,2.568-10.116c0.75-3.82,1.123-6.244,1.123-7.272
		c0-0.573-0.199-0.86-0.6-0.86c-0.549,0-1.691,0.58-3.426,1.741l-0.268-0.066l-0.201-0.485l0.068-0.33
		c0.592-0.441,1.301-0.941,2.125-1.499c0.822-0.559,1.635-1.054,2.436-1.488c0.801-0.434,1.354-0.698,1.656-0.794
		c0.305-0.095,0.574-0.143,0.813-0.143c0.414,0,0.701,0.144,0.855,0.43c0.156,0.287,0.234,0.583,0.234,0.892
		c0,0.662-0.246,1.969-0.734,3.924c-0.146,0.542-0.549,2.151-1.201,4.825l0.156,0.044c1.096-1.777,2.447-3.481,4.049-5.113
		c1.602-1.63,3.256-2.873,4.961-3.724c1.703-0.853,2.957-1.278,3.76-1.278c0.443,0,0.777,0.136,1,0.407
		c0.223,0.272,0.334,0.622,0.334,1.048c0,1.013-0.512,3.481-1.535,7.404c-1.379,5.231-2.07,8.309-2.07,9.234
		c0,0.544,0.201,0.816,0.602,0.816c0.488,0,1.736-0.705,3.738-2.116l0.244,0.066l0.244,0.573l-0.066,0.265
		c-0.92,0.734-1.973,1.487-3.158,2.259c-1.188,0.771-2.047,1.275-2.582,1.51c-0.533,0.234-0.977,0.352-1.334,0.352
		c-0.459,0-0.797-0.158-1.012-0.474c-0.215-0.315-0.324-0.709-0.324-1.179c0-0.514,0.119-1.319,0.357-2.413
		c0.238-1.095,0.734-3.104,1.49-6.028c1.082-4.128,1.623-6.663,1.623-7.603c0-0.779-0.281-1.168-0.844-1.168
		c-0.4,0-0.869,0.126-1.402,0.375c-0.949,0.44-1.971,1.157-3.068,2.148s-2.104,2.152-3.016,3.482
		c-0.912,1.33-1.623,2.652-2.135,3.967s-0.959,2.803-1.346,4.462c-0.059,0.206-0.289,1.404-0.689,3.593
		C267.408,39.065,266.363,39.3,265.295,39.609L265.295,39.609z"/>
	<path class="st2" d="M295.752,10.342c0-0.778,0.25-1.465,0.744-2.06c0.498-0.595,1.102-0.892,1.814-0.892
		c0.504,0,0.912,0.154,1.221,0.463C299.844,8.161,300,8.601,300,9.174c0,0.793-0.229,1.503-0.689,2.126
		c-0.459,0.625-1.039,0.937-1.734,0.937c-0.52,0-0.953-0.175-1.301-0.528C295.926,11.356,295.752,10.901,295.752,10.342
		L295.752,10.342z M289.945,22.641l-0.223-0.507l0.068-0.287c2.016-1.44,3.568-2.45,4.66-3.03c1.09-0.581,1.945-0.871,2.568-0.871
		c0.607,0,0.912,0.433,0.912,1.299c0,0.397-0.078,0.959-0.232,1.687c-0.158,0.728-0.531,2.192-1.125,4.396
		c-1.617,5.936-2.424,9.447-2.424,10.535c0,0.588,0.207,0.881,0.621,0.881c0.641,0,1.797-0.624,3.473-1.874l0.221,0.066l0.244,0.574
		l-0.043,0.264c-1.039,0.793-2.107,1.557-3.203,2.292c-1.098,0.735-1.879,1.201-2.348,1.399c-0.467,0.199-0.855,0.298-1.168,0.298
		c-0.445,0-0.793-0.191-1.045-0.573c-0.252-0.382-0.379-0.831-0.379-1.345c0-0.661,0.092-1.37,0.277-2.126
		c0.186-0.757,0.412-1.598,0.68-2.524c0.963-3.408,1.65-6.068,2.057-7.978c0.408-1.91,0.613-3.078,0.613-3.504
		c0-0.499-0.17-0.748-0.512-0.748c-0.223,0-0.439,0.055-0.645,0.165c-0.209,0.11-1.143,0.642-2.805,1.598L289.945,22.641
		L289.945,22.641z"/>
</g>
<g>
</g>
<g>
</g>
<g>
</g>
<g>
</g>
<g>
</g>
<g>
</g>
<g>
</g>
<g>
</g>
<g>
</g>
<g>
</g>
<g>
</g>
<g>
</g>
</svg>
