<?xml version="1.0" encoding="utf-8"?>
<!-- Generator: Adobe Illustrator 16.0.0, SVG Export Plug-In . SVG Version: 6.00 Build 0)  -->
<!DOCTYPE svg PUBLIC "-//W3C//DTD SVG 1.1//EN" "http://www.w3.org/Graphics/SVG/1.1/DTD/svg11.dtd">
<svg version="1.1" id="Layer_1" xmlns="http://www.w3.org/2000/svg" xmlns:xlink="http://www.w3.org/1999/xlink" x="0px" y="0px"
	 width="400px" height="100px" viewBox="0 0 400 100" style="enable-background:new 0 0 400 100;" xml:space="preserve">
<style type="text/css">
<![CDATA[
	.st0{opacity:0.05;fill:#FFFFFF;}
	.st1{opacity:0.15;fill:#FFFFFF;}
]]>
</style>
<g>
	<polygon class="st0" points="89.481,73 73.369,45 89.481,17 121.704,17 137.816,45 121.704,73 	"/>
	<polygon class="st0" points="115.502,35 105.432,17.5 115.502,0 135.641,0 145.71,17.5 135.641,35 	"/>
	<polygon class="st0" points="400,100 356.288,25 253.175,25 209.463,100 	"/>
	<polygon class="st1" points="361.31,100 336.954,58 272.509,58 248.154,100 	"/>
	<polygon class="st0" points="271.741,100 239.641,45 74.659,45 42.558,100 	"/>
	<polygon class="st0" points="60.72,100 52.103,85 19.879,85 11.261,100 	"/>
</g>
<g>
</g>
<g>
</g>
<g>
</g>
<g>
</g>
<g>
</g>
<g>
</g>
<g>
</g>
<g>
</g>
<g>
</g>
<g>
</g>
<g>
</g>
<g>
</g>
<g>
</g>
<g>
</g>
<g>
</g>
</svg>
