<?xml version="1.0" encoding="utf-8"?>
<!DOCTYPE svg PUBLIC "-//W3C//DTD SVG 1.1//EN" "http://www.w3.org/Graphics/SVG/1.1/DTD/svg11.dtd">
<svg version="1.1" id="Layer_1" xmlns="http://www.w3.org/2000/svg" xmlns:xlink="http://www.w3.org/1999/xlink" x="0px" y="0px"
	 width="322px" height="26px" viewBox="0 0 322 26" style="enable-background:new 0 0 322 26;" xml:space="preserve">
<style type="text/css">
<![CDATA[
	.st0{fill:#EC008C;}
	.st1{fill:#FFFFFF;}
]]>
</style>
<g>
	<path class="st1" d="M8.583,11.564c-0.802-0.669-1.87-1.169-2.973-1.169c-1.436,0-2.638,0.5-2.638,2.104
		c0,3.742,7.181,1.87,7.181,8.016c0,2.907-2.306,5.043-5.177,5.043c-1.236,0-2.138-0.165-2.807-0.334
		c-0.668-0.134-1.136-0.334-1.502-0.334c-0.201,0-0.502,0.2-0.636,0.4H0v-4.008c1.102,1.203,2.64,2.006,4.275,2.006
		c1.736,0,3.474-0.503,3.474-2.506c0-4.676-7.181-2.438-7.181-8.284c0-2.706,2.037-4.376,4.708-4.376
		c0.469,0,0.97,0.067,1.438,0.167c0.435,0.067,0.868,0.167,1.135,0.167c0.234,0,0.568-0.067,0.735-0.268V11.564z"/>
	<path class="st1" d="M10.691,10.929l4.576-6.346v4.075h4.443v2.739c-0.301-0.234-0.669-0.368-1.036-0.401
		c-0.366-0.067-0.768-0.067-1.235-0.067h-2.205v12.726c0,0.702,0.234,1.168,0.602,1.368h-3.541c0.534-0.267,0.602-1.067,0.602-2.371
		V10.929H10.691z"/>
	<path class="st1" d="M36.848,8.658c-0.468,0.334-0.535,0.769-0.535,1.637v10.654c0,0.535,0.168,0.702,0.301,0.969
		c-2.804,1.57-3.306,3.641-7.748,3.641c-3.941,0-7.215-2.537-7.215-6.679v-8.251c0-1.369-0.335-1.67-0.734-1.971h3.74
		c-0.635,0.401-0.668,0.935-0.668,1.871v8.151c0,2.871,2.07,4.609,5.011,4.609c2.974,0,4.342-1.938,4.978-2.706V9.827
		c0-0.601-0.568-0.968-0.836-1.169H36.848z"/>
	<path class="st1" d="M54.424,2.345c0-0.367-0.134-0.768-0.602-1.102h2.939v18.405c0,0.802,0,1.97,0.368,2.271
		c-0.702,0.134-1.336,0.533-1.938,0.935c-2.372,1.337-3.74,2.706-6.681,2.706c-5.077,0-8.952-3.874-8.952-8.85
		c0-5.045,4.31-8.585,9.187-8.585c2.338,0,4.275,0.501,5.544,2.439l0.134-0.067V2.345z M54.424,13.066
		c-1.737-1.736-2.905-2.671-6.146-2.671c-3.741,0-6.313,2.972-6.313,6.546c0,3.473,3.04,6.348,6.58,6.348
		c3.007,0,4.644-1.872,5.879-2.541V13.066z"/>
	<path class="st1" d="M61.98,17.576c0.501,3.475,3.341,5.713,7.015,5.713c1.938,0,3.774-0.169,5.243-1.571v3.774
		c-0.165-0.268-0.433-0.535-0.768-0.567c-0.334-0.034-2.204,0.434-2.739,0.535c-0.568,0.099-1.168,0.099-1.736,0.099
		c-5.044,0-9.42-3.54-9.42-8.685c0-5.177,4.008-8.75,9.187-8.75c5.443,0,9.118,4.409,9.118,8.483c0,0.435,0.234,0.702,0.401,0.97
		H61.98z M75.475,15.305c-0.803-3.106-3.342-4.91-6.681-4.91c-3.44,0-5.812,1.837-6.781,4.91H75.475z"/>
	<path class="st1" d="M81.06,12.733c0-0.535-0.167-0.702-0.301-0.969c3.74-1.202,3.306-3.641,7.748-3.641
		c3.943,0,7.216,3.34,7.216,7.249v7.682c0,1.37,0.334,1.671,0.735,1.97h-3.742c0.635-0.4,0.668-0.934,0.668-1.868v-7.449
		c0-2.973-2.237-5.311-5.242-5.311c-2.74,0-4.077,2.205-4.744,2.706v10.755c0,0.602,0.567,0.968,0.834,1.168h-3.707
		c0.469-0.334,0.535-0.767,0.535-1.636V12.733z"/>
	<path class="st1" d="M97.967,10.929l4.576-6.346v4.075h4.442v2.739c-0.301-0.234-0.668-0.368-1.036-0.401
		c-0.366-0.067-0.767-0.067-1.235-0.067h-2.204v12.726c0,0.702,0.233,1.168,0.602,1.368H99.57c0.535-0.267,0.603-1.067,0.603-2.371
		V10.929H97.967z"/>
	<path class="st1" d="M117.881,8.725h2.205V6.888c0-3.674,3.24-6.179,5.345-6.179c0.367,0,0.867-0.133,1.168-0.267v2.671h-0.334
		c-2.071,0-3.841,1.103-3.841,3.809v1.736h4.175v2.539c-0.233-0.101-0.533-0.167-0.834-0.201c-0.301-0.034-0.602-0.067-0.902-0.067
		h-2.438v12.726c0,0.702,0.234,1.168,0.602,1.368h-3.54c0.533-0.267,0.601-1.067,0.601-2.371V10.929h-1.002
		c-0.4,0-0.902,0.134-1.203,0.268V8.725z M131.443,23.655c0,0.702,0.234,1.168,0.602,1.368h-3.541
		c0.534-0.267,0.602-1.067,0.602-2.371V10.161c0-0.635-0.034-1.203-0.535-1.503h2.873V23.655z M131.744,4.583
		c0,0.835-0.702,1.503-1.503,1.503c-0.802,0-1.504-0.668-1.504-1.503s0.702-1.502,1.504-1.502
		C131.042,3.081,131.744,3.748,131.744,4.583z"/>
	<path class="st1" d="M135.825,12.733c0-0.535-0.167-0.702-0.301-0.969c3.741-1.202,3.307-3.641,7.749-3.641
		c3.942,0,7.215,3.34,7.215,7.249v7.682c0,1.37,0.334,1.671,0.735,1.97h-3.742c0.636-0.4,0.669-0.934,0.669-1.868v-7.449
		c0-2.973-2.238-5.311-5.243-5.311c-2.739,0-4.076,2.205-4.743,2.706v10.755c0,0.602,0.566,0.968,0.834,1.168h-3.707
		c0.468-0.334,0.534-0.767,0.534-1.636V12.733z"/>
	<path class="st1" d="M169.298,10.596c1.003,0.634,1.17,0.801,2.238,0.801c-0.602,0.434-0.602,1.036-0.602,2.437v10.155
		c0,0.368,0.134,0.735,0.669,1.034h-3.007v-1.836l-0.133-0.067c-1.27,1.938-3.207,2.438-5.545,2.438
		c-4.877,0-9.185-3.54-9.185-8.582c0-4.979,3.874-8.853,8.95-8.853C165.591,8.057,167.195,9.159,169.298,10.596z M168.597,12.934
		c-1.235-0.668-2.872-2.539-5.879-2.539c-3.539,0-6.578,2.873-6.578,6.345c0,3.575,2.57,6.549,6.311,6.549
		c3.241,0,4.409-0.937,6.146-2.674V12.934z"/>
	<path class="st1" d="M174.817,12.733c0-0.535-0.167-0.702-0.301-0.969c3.741-1.202,3.308-3.641,7.75-3.641
		c3.941,0,7.214,3.34,7.214,7.249v7.682c0,1.37,0.335,1.671,0.735,1.97h-3.74c0.634-0.4,0.667-0.934,0.667-1.868v-7.449
		c0-2.973-2.238-5.311-5.243-5.311c-2.739,0-4.075,2.205-4.743,2.706v10.755c0,0.602,0.568,0.968,0.836,1.168h-3.709
		c0.468-0.334,0.534-0.767,0.534-1.636V12.733z"/>
	<path class="st1" d="M205.386,12.132c-1.436-1.236-2.236-1.737-4.175-1.737c-4.075,0-6.347,3.439-6.347,6.582
		c0,3.606,2.739,6.313,6.38,6.313c1.638,0,3.007-0.704,4.142-1.839v3.876c-0.031,0-0.533-0.369-0.667-0.369
		s-2.338,0.602-4.108,0.602c-4.008,0-8.149-3.54-8.149-8.649c0-4.744,3.707-8.786,8.384-8.786c1.67,0,3.306,0.668,3.774,0.668
		c0.267,0,0.602-0.4,0.767-0.567V12.132z"/>
	<path class="st1" d="M209.566,17.576c0.502,3.475,3.342,5.713,7.015,5.713c1.938,0,3.774-0.169,5.245-1.571v3.774
		c-0.167-0.268-0.435-0.535-0.769-0.567c-0.334-0.034-2.205,0.434-2.739,0.535c-0.567,0.099-1.169,0.099-1.737,0.099
		c-5.042,0-9.418-3.54-9.418-8.685c0-5.177,4.008-8.75,9.185-8.75c5.445,0,9.119,4.409,9.119,8.483c0,0.435,0.233,0.702,0.4,0.97
		H209.566z M223.061,15.305c-0.801-3.106-3.34-4.91-6.681-4.91c-3.439,0-5.812,1.837-6.78,4.91H223.061z"/>
	<path class="st0" d="M254.703,20.682h0.067l4.342-9.953c0.333-0.801,0.533-1.203,0.533-1.469c0-0.2-0.101-0.435-0.299-0.602h3.674
		c-0.603,0.435-1.104,1.236-1.438,1.938l-7.014,14.963h-0.066l-4.576-12.124h-0.067l-4.676,12.124h-0.067l-6.947-14.963
		c-0.333-0.702-0.835-1.503-1.437-1.938h3.774c-0.2,0.167-0.301,0.401-0.301,0.602c0,0.267,0.2,0.668,0.534,1.469l4.209,9.953h0.066
		l4.911-12.825h0.066L254.703,20.682z"/>
	<path class="st0" d="M279.73,10.596c1.002,0.634,1.17,0.801,2.237,0.801c-0.602,0.434-0.602,1.036-0.602,2.437v10.155
		c0,0.368,0.134,0.735,0.669,1.034h-3.007v-1.836l-0.132-0.067c-1.271,1.938-3.208,2.438-5.546,2.438
		c-4.877,0-9.186-3.54-9.186-8.582c0-4.979,3.875-8.853,8.951-8.853C276.023,8.057,277.625,9.159,279.73,10.596z M279.028,12.934
		c-1.235-0.668-2.872-2.539-5.878-2.539c-3.541,0-6.581,2.873-6.581,6.345c0,3.575,2.572,6.549,6.313,6.549
		c3.24,0,4.409-0.937,6.146-2.674V12.934z"/>
	<path class="st0" d="M285.249,25.023c0.534-0.267,0.602-1.067,0.602-2.371V2.746c0-0.635-0.034-1.203-0.535-1.503h2.873v22.413
		c0,0.702,0.234,1.168,0.601,1.368H285.249z"/>
	<path class="st0" d="M294.001,17.576c0.501,3.475,3.341,5.713,7.015,5.713c1.937,0,3.774-0.169,5.245-1.571v3.774
		c-0.168-0.268-0.436-0.535-0.77-0.567c-0.334-0.034-2.203,0.434-2.738,0.535c-0.566,0.099-1.168,0.099-1.737,0.099
		c-5.043,0-9.419-3.54-9.419-8.685c0-5.177,4.008-8.75,9.185-8.75c5.446,0,9.12,4.409,9.12,8.483c0,0.435,0.232,0.702,0.4,0.97
		H294.001z M307.496,15.305c-0.801-3.106-3.34-4.91-6.681-4.91c-3.439,0-5.812,1.837-6.78,4.91H307.496z"/>
	<path class="st0" d="M320.431,11.564c-0.803-0.669-1.871-1.169-2.975-1.169c-1.436,0-2.639,0.5-2.639,2.104
		c0,3.742,7.182,1.87,7.182,8.016c0,2.907-2.305,5.043-5.178,5.043c-1.234,0-2.137-0.165-2.805-0.334
		c-0.668-0.134-1.137-0.334-1.504-0.334c-0.201,0-0.5,0.2-0.633,0.4h-0.033v-4.008c1.102,1.203,2.637,2.006,4.275,2.006
		c1.736,0,3.473-0.503,3.473-2.506c0-4.676-7.182-2.438-7.182-8.284c0-2.706,2.037-4.376,4.709-4.376
		c0.469,0,0.969,0.067,1.438,0.167c0.434,0.067,0.867,0.167,1.135,0.167c0.234,0,0.568-0.067,0.736-0.268V11.564z"/>
</g>
<g>
</g>
<g>
</g>
<g>
</g>
<g>
</g>
<g>
</g>
<g>
</g>
<g>
</g>
<g>
</g>
<g>
</g>
<g>
</g>
<g>
</g>
<g>
</g>
<g>
</g>
<g>
</g>
<g>
</g>
</svg>
