<?xml version="1.0" encoding="utf-8"?>
<!-- Generator: Adobe Illustrator 16.0.0, SVG Export Plug-In . SVG Version: 6.00 Build 0)  -->
<!DOCTYPE svg PUBLIC "-//W3C//DTD SVG 1.1//EN" "http://www.w3.org/Graphics/SVG/1.1/DTD/svg11.dtd">
<svg version="1.1" id="Layer_1" xmlns="http://www.w3.org/2000/svg" xmlns:xlink="http://www.w3.org/1999/xlink" x="0px" y="0px"
	 width="250px" height="84px" viewBox="0 0 250 84" style="enable-background:new 0 0 250 84;" xml:space="preserve">
<style type="text/css">
<![CDATA[
	.st0{fill:#FFFFFF;}
]]>
</style>
<g>
	<path class="st0" d="M240.8,84H9.199C4.127,84,0,79.855,0,74.761V9.239C0,4.145,4.127,0,9.199,0H240.8c5.072,0,9.2,4.145,9.2,9.239
		v65.522C250,79.855,245.872,84,240.8,84z M9.199,0.972c-4.539,0-8.231,3.708-8.231,8.267v65.522c0,4.559,3.692,8.267,8.231,8.267
		H240.8c4.539,0,8.231-3.708,8.231-8.267V9.239c0-4.559-3.692-8.267-8.231-8.267H9.199z"/>
	<rect x="112.235" y="9.316" class="st0" width="1.086" height="66.903"/>
	<g>
		<path class="st0" d="M128.888,12.31l2.938,8.997h-1.185l-0.724-2.346h-3.427l-0.721,2.346h-1.134l3.016-8.997H128.888z
			 M129.623,17.979l-1.379-4.484h-0.025l-1.418,4.484H129.623z"/>
		<path class="st0" d="M132.713,16.15c0-0.478-0.039-0.955-0.05-1.418h1.043l0.039,1.031h0.025c0.348-0.8,0.902-1.121,1.869-1.121
			v1.069c-0.127-0.025-0.269-0.039-0.411-0.039c-0.84,0-1.432,0.722-1.432,2.153v3.481h-1.083V16.15z"/>
		<path class="st0" d="M137.765,12.025v1.289h-1.185v-1.289H137.765z M136.631,14.732h1.081v6.574h-1.081V14.732z"/>
		<path class="st0" d="M140.2,18.341c0,1.521,0.592,2.229,1.79,2.229c0.542,0,1.136-0.271,1.508-0.542l0.053,0.98
			c-0.515,0.244-1.185,0.386-1.844,0.386c-1.739,0-2.641-1.313-2.641-3.377c0-2.062,0.901-3.376,2.538-3.376
			c1.482,0,2.309,1.186,2.309,3.118v0.581H140.2z M142.828,17.516c0-1.366-0.423-2.049-1.288-2.049c-0.695,0-1.313,0.515-1.34,2.049
			H142.828z"/>
		<path class="st0" d="M145.109,16.15c0-0.478-0.039-0.955-0.053-1.418h1.045l0.039,0.979h0.025
			c0.348-0.748,0.901-1.069,1.661-1.069c1.148,0,1.922,0.656,1.922,2.1v4.563h-1.082v-4.24c0-1.045-0.388-1.497-1.085-1.497
			c-0.849,0-1.391,0.594-1.391,1.779v3.958h-1.082V16.15z"/>
		<path class="st0" d="M151.318,16.15c0-0.478-0.037-0.955-0.05-1.418h1.042l0.039,0.979h0.025c0.349-0.748,0.903-1.069,1.663-1.069
			c1.146,0,1.92,0.656,1.92,2.1v4.563h-1.082v-4.24c0-1.045-0.387-1.497-1.083-1.497c-0.851,0-1.391,0.594-1.391,1.779v3.958h-1.084
			V16.15z"/>
		<path class="st0" d="M158.768,12.025v1.289h-1.186v-1.289H158.768z M157.633,14.732h1.082v6.574h-1.082V14.732z"/>
		<path class="st0" d="M160.39,16.15c0-0.478-0.039-0.955-0.051-1.418h1.043l0.039,1.031h0.025c0.349-0.8,0.901-1.121,1.87-1.121
			v1.069c-0.129-0.025-0.271-0.039-0.413-0.039c-0.839,0-1.432,0.722-1.432,2.153v3.481h-1.082V16.15z"/>
		<path class="st0" d="M172.025,21.591c0,1.815-1.366,2.576-2.81,2.576c-0.554,0-1.443-0.206-1.919-0.399l0.053-1.095
			c0.462,0.31,1.21,0.567,1.802,0.567c1.327,0,1.845-0.786,1.845-1.922v-1.031h-0.027c-0.426,0.748-1.005,1.108-1.726,1.108
			c-1.354,0-2.27-1.108-2.27-3.377c0-2.268,0.915-3.376,2.385-3.376c0.656,0,1.251,0.411,1.61,1.043h0.027l0.036-0.954h1.046
			c-0.014,0.386-0.053,0.798-0.053,1.198V21.591z M169.5,20.52c0.992,0,1.443-0.851,1.443-2.501c0-1.649-0.451-2.5-1.443-2.5
			c-0.993,0-1.443,0.85-1.443,2.5C168.057,19.668,168.507,20.52,169.5,20.52z"/>
		<path class="st0" d="M173.753,15.184c0.54-0.348,1.21-0.541,1.855-0.541c0.966,0,1.547,0.411,1.753,0.618
			c0.283,0.284,0.566,0.685,0.566,1.612V20.3c0,0.388,0.025,0.774,0.051,1.006h-0.979l-0.064-0.89h-0.025
			c-0.296,0.502-0.836,0.979-1.843,0.979c-1.083,0-1.896-0.631-1.896-1.894c0-1.276,0.838-2.218,3.094-2.218h0.632v-0.296
			c0-0.49-0.039-0.774-0.244-1.057c-0.221-0.297-0.646-0.412-1.097-0.412c-0.67,0-1.313,0.27-1.688,0.683L173.753,15.184z
			 M176.896,18.083c-0.192-0.025-0.465-0.025-0.76-0.025c-1.276,0-1.883,0.606-1.883,1.366c0,0.698,0.361,1.147,1.11,1.147
			c0.939,0,1.532-0.761,1.532-1.662V18.083z"/>
		<path class="st0" d="M179.458,16.15c0-0.478-0.035-0.955-0.049-1.418h1.042l0.039,0.979h0.025
			c0.348-0.748,0.904-1.069,1.664-1.069c1.146,0,1.919,0.656,1.919,2.1v4.563h-1.083v-4.24c0-1.045-0.386-1.497-1.081-1.497
			c-0.852,0-1.392,0.594-1.392,1.779v3.958h-1.085V16.15z"/>
		<path class="st0" d="M125.383,27.542h2.112v7.372h2.979v1.624h-5.09V27.542z"/>
		<path class="st0" d="M134.505,37.156c-0.501,1.573-1.21,2.242-2.345,2.242c-0.359,0-0.876-0.064-1.224-0.166L131,37.723
			c0.13,0.078,0.348,0.156,0.645,0.156c0.684,0,1.004-0.761,1.004-1.341l-2.331-6.716h2.114l1.249,4.55h0.025l1.185-4.55h1.987
			L134.505,37.156z"/>
		<path class="st0" d="M139.042,29.822l0.979,4.782h0.025L141,29.822h2.32l0.915,4.782h0.024l0.941-4.782h1.933l-1.791,6.716h-2.164
			l-1.097-4.912h-0.025l-1.031,4.912h-2.217l-1.804-6.716H139.042z"/>
		<path class="st0" d="M150.895,29.718c2.063,0,3.157,1.431,3.157,3.442c0,2.037-1.095,3.481-3.157,3.481
			c-2.062,0-3.156-1.444-3.156-3.481C147.738,31.149,148.833,29.718,150.895,29.718z M150.895,35.248
			c0.71,0,1.044-0.772,1.044-2.088s-0.334-2.05-1.044-2.05c-0.709,0-1.043,0.734-1.043,2.05S150.186,35.248,150.895,35.248z"/>
		<path class="st0" d="M161.282,35.029c0,0.85,0.025,1.199,0.05,1.508h-1.934c-0.025-0.258-0.05-0.605-0.05-1.07h-0.025
			c-0.208,0.412-0.659,1.173-1.83,1.173c-1.508,0-2.359-1.483-2.359-3.624c0-1.804,0.671-3.299,2.359-3.299
			c0.94,0,1.482,0.491,1.728,1.097h0.025V26.87h2.036V35.029z M158.228,35.171c0.838,0,1.019-1.212,1.019-1.985
			c0-1.07-0.194-2.077-1.019-2.077c-0.901,0-0.979,1.006-0.979,2.077C157.249,33.881,157.299,35.171,158.228,35.171z"/>
		<path class="st0" d="M162.698,31.227c0-0.646-0.014-1.057-0.053-1.405h1.857c0.012,0.399,0.037,0.812,0.051,1.212h0.025
			c0.414-0.722,0.695-1.316,1.868-1.316h0.298V31.6c-0.22-0.052-0.399-0.078-0.684-0.078c-1.186,0-1.327,1.032-1.327,2.011v3.004
			h-2.036V31.227z"/>
		<path class="st0" d="M167.941,30.143c0.528-0.167,1.431-0.425,2.165-0.425c2.358,0,2.9,0.981,2.9,2.475v2.449
			c0,0.993,0.012,1.445,0.051,1.896h-1.855l-0.051-0.928h-0.026c-0.09,0.411-0.877,1.031-1.843,1.031
			c-1.251,0-2.075-0.813-2.075-2.037c0-2.242,2.615-2.256,3.324-2.256h0.62c0-1.289-0.954-1.289-1.252-1.289
			c-0.515,0-1.067,0.117-1.868,0.593L167.941,30.143z M171.151,33.301c-0.812,0-2.088,0.051-2.088,1.174
			c0,0.878,0.709,0.878,0.875,0.878c0.182,0,1.213-0.028,1.213-1.665V33.301z"/>
		<path class="st0" d="M180.118,33.714h-3.957c0,0.799,0.515,1.534,1.664,1.534c0.695,0,1.391-0.257,1.894-0.527l0.039,1.533
			c-0.658,0.245-1.432,0.387-2.127,0.387c-2.359,0-3.402-1.43-3.402-3.481c0-1.805,1.058-3.442,2.977-3.442
			c0.606,0,2.913,0,2.913,3.506V33.714z M178.262,32.605c0-0.852-0.217-1.649-1.057-1.649c-1.044,0-1.044,1.288-1.044,1.649H178.262
			z"/>
		<path class="st0" d="M180.788,29.822h1.159v-1.38l1.984-0.632v2.012h1.315v1.43h-1.315v3.081c0,0.658,0.297,0.838,0.684,0.838
			c0.284,0,0.462-0.052,0.671-0.142v1.43c-0.209,0.078-0.763,0.181-1.419,0.181c-1.057,0-1.972-0.516-1.972-1.986v-3.403h-1.107
			V29.822z"/>
		<path class="st0" d="M186.327,26.87h2.036v3.945h0.027c0.23-0.747,0.979-1.097,1.713-1.097c1.482,0,1.973,1.083,1.973,2.424v4.396
			h-2.036V32.4c0-0.838-0.375-1.058-0.787-1.058c-0.656,0-0.89,0.567-0.89,1.429v3.766h-2.036V26.87z"/>
		<path class="st0" d="M203.042,29.577c-0.322-0.181-0.864-0.516-1.83-0.516c-1.418,0-2.319,1.148-2.319,2.965
			c0,1.752,1.019,2.939,2.358,2.939c1.03,0,1.636-0.387,1.842-0.477l0.078,1.882c-0.361,0.115-1.11,0.321-2.256,0.321
			c-2.461,0-4.188-1.843-4.188-4.692c0-3.301,2.217-4.614,4.047-4.614c1.341,0,2.024,0.296,2.371,0.437L203.042,29.577z"/>
		<path class="st0" d="M207.783,37.156c-0.503,1.573-1.212,2.242-2.345,2.242c-0.362,0-0.877-0.064-1.226-0.166l0.065-1.509
			c0.128,0.078,0.348,0.156,0.643,0.156c0.684,0,1.007-0.761,1.007-1.341l-2.334-6.716h2.114l1.249,4.55h0.026l1.187-4.55h1.983
			L207.783,37.156z"/>
		<path class="st0" d="M218.221,32.4c0-0.775-0.323-1.058-0.773-1.058c-0.606,0-0.837,0.438-0.837,0.941v4.254h-2.036V32.4
			c0-0.852-0.375-1.058-0.71-1.058c-0.67,0-0.901,0.58-0.901,1.429v3.766h-2.036v-5.311c0-0.646-0.014-1.057-0.053-1.405h1.856
			c0.026,0.296,0.052,0.67,0.052,1.121h0.025c0.31-0.734,0.825-1.225,1.894-1.225c0.968,0,1.458,0.453,1.741,1.122
			c0.296-0.631,0.772-1.122,1.842-1.122c1.482,0,1.973,1.083,1.973,2.424v4.396h-2.036V32.4z"/>
		<path class="st0" d="M221.672,31.227c0-0.646-0.013-1.057-0.052-1.405h1.856c0.013,0.399,0.038,0.812,0.052,1.212h0.025
			c0.412-0.722,0.695-1.316,1.869-1.316h0.296V31.6c-0.219-0.052-0.399-0.078-0.683-0.078c-1.186,0-1.327,1.032-1.327,2.011v3.004
			h-2.037V31.227z"/>
		<path class="st0" d="M232.433,35.132c0,0.644,0.013,1.057,0.05,1.405h-1.854c-0.025-0.297-0.051-0.671-0.051-1.122h-0.026
			c-0.311,0.734-0.825,1.225-1.896,1.225c-1.48,0-1.971-1.083-1.971-2.424v-4.395h2.035v4.138c0,0.837,0.375,1.056,0.786,1.056
			c0.658,0,0.891-0.566,0.891-1.43v-3.764h2.036V35.132z"/>
		<path class="st0" d="M125.524,47.458h4.021v0.979h-2.887V51.3h2.745v0.979h-2.745v4.175h-1.133V47.458z"/>
		<path class="st0" d="M135.448,55.039c0,0.477,0.036,0.951,0.05,1.416h-1.043l-0.039-0.979h-0.025
			c-0.347,0.748-0.904,1.069-1.663,1.069c-1.146,0-1.919-0.658-1.919-2.1v-4.563h1.083v4.24c0,1.043,0.386,1.497,1.082,1.497
			c0.851,0,1.391-0.593,1.391-1.781v-3.956h1.084V55.039z"/>
		<path class="st0" d="M137.017,51.3c0-0.479-0.039-0.956-0.05-1.418h1.043l0.039,0.979h0.025c0.348-0.748,0.9-1.069,1.663-1.069
			c1.146,0,1.92,0.656,1.92,2.1v4.563h-1.083v-4.24c0-1.045-0.386-1.495-1.082-1.495c-0.851,0-1.393,0.592-1.393,1.777v3.958h-1.083
			V51.3z"/>
		<path class="st0" d="M147.958,55.242c0,0.401,0.039,0.814,0.049,1.212h-1.042l-0.039-0.967H146.9
			c-0.283,0.516-0.773,1.057-1.728,1.057c-1.352,0-2.267-1.107-2.267-3.377c0-2.268,0.915-3.376,2.267-3.376
			c0.749,0,1.238,0.296,1.677,0.991h0.025v-3.995h1.083V55.242z M145.432,50.667c-0.992,0-1.444,0.851-1.444,2.5
			c0,1.651,0.452,2.501,1.444,2.501c0.993,0,1.443-0.851,1.443-2.501C146.875,51.518,146.425,50.667,145.432,50.667z"/>
		<path class="st0" d="M150.239,53.491c0,1.52,0.592,2.23,1.79,2.23c0.54,0,1.133-0.272,1.509-0.542l0.05,0.98
			c-0.516,0.246-1.186,0.386-1.842,0.386c-1.74,0-2.643-1.314-2.643-3.377c0-2.062,0.902-3.376,2.54-3.376
			c1.479,0,2.306,1.186,2.306,3.12v0.58H150.239z M152.867,52.666c0-1.366-0.426-2.049-1.291-2.049
			c-0.695,0-1.313,0.514-1.337,2.049H152.867z"/>
		<path class="st0" d="M159.875,55.242c0,0.401,0.038,0.814,0.053,1.212h-1.044l-0.039-0.967h-0.025
			c-0.282,0.516-0.772,1.057-1.727,1.057c-1.354,0-2.27-1.107-2.27-3.377c0-2.268,0.915-3.376,2.27-3.376
			c0.745,0,1.237,0.296,1.675,0.991h0.025v-3.995h1.082V55.242z M157.349,50.667c-0.99,0-1.441,0.851-1.441,2.5
			c0,1.651,0.451,2.501,1.441,2.501c0.993,0,1.444-0.851,1.444-2.501C158.793,51.518,158.342,50.667,157.349,50.667z"/>
		<path class="st0" d="M164.334,46.787h1.082v3.995h0.025c0.438-0.694,0.928-0.991,1.676-0.991c1.353,0,2.268,1.108,2.268,3.376
			c0,2.27-0.915,3.377-2.268,3.377c-0.953,0-1.443-0.542-1.727-1.057h-0.025l-0.038,0.967h-1.046
			c0.014-0.398,0.053-0.811,0.053-1.212V46.787z M166.86,55.669c0.992,0,1.443-0.851,1.443-2.501c0-1.649-0.451-2.5-1.443-2.5
			c-0.994,0-1.444,0.851-1.444,2.5C165.416,54.818,165.866,55.669,166.86,55.669z"/>
		<path class="st0" d="M172.695,57.795c-0.321,1.121-0.784,1.522-1.609,1.522c-0.259,0-0.54-0.028-0.734-0.079l0.052-0.981
			c0.167,0.079,0.359,0.131,0.593,0.131c0.309,0,0.54-0.142,0.721-0.825l0.258-1.006l-2.075-6.677h1.136l1.469,5.361h0.025
			l1.366-5.361h1.081L172.695,57.795z"/>
		<path class="st0" d="M130.034,64.7h-0.025l-1.121,6.986h-2.476l-1.804-8.997h2.037l1.083,6.393h0.025l1.07-6.393h2.474
			l1.095,6.393h0.025l1.16-6.393h1.856l-1.765,8.997h-2.475L130.034,64.7z"/>
		<path class="st0" d="M141.618,68.862h-3.956c0,0.8,0.516,1.534,1.663,1.534c0.695,0,1.391-0.257,1.895-0.527l0.038,1.534
			c-0.658,0.245-1.432,0.387-2.127,0.387c-2.358,0-3.402-1.43-3.402-3.481c0-1.804,1.057-3.44,2.977-3.44
			c0.605,0,2.912,0,2.912,3.506V68.862z M139.762,67.755c0-0.853-0.217-1.65-1.056-1.65c-1.044,0-1.044,1.29-1.044,1.65H139.762z"/>
		<path class="st0" d="M142.881,62.019h2.036v9.668h-2.036V62.019z"/>
		<path class="st0" d="M150.394,66.658c-0.542-0.218-1.045-0.36-1.637-0.36c-0.529,0-0.76,0.259-0.76,0.491
			c0,0.413,0.294,0.553,1.404,0.967c0.695,0.257,1.404,0.695,1.404,1.957c0,1.497-1.121,2.077-2.476,2.077
			c-0.592,0-1.494-0.063-2.203-0.322l0.053-1.573c0.49,0.296,1.107,0.465,1.675,0.465c0.954,0,1.018-0.334,1.018-0.632
			c0-0.295-0.528-0.424-1.404-0.786c-0.71-0.296-1.405-0.863-1.405-2.063c0-0.722,0.516-2.01,2.513-2.01
			c0.84,0,1.535,0.156,1.869,0.271L150.394,66.658z"/>
		<path class="st0" d="M151.888,62.019h2.036v3.944h0.025c0.231-0.747,0.979-1.095,1.714-1.095c1.482,0,1.972,1.083,1.972,2.423
			v4.396h-2.036v-4.137c0-0.839-0.372-1.057-0.787-1.057c-0.656,0-0.888,0.566-0.888,1.43v3.764h-2.036V62.019z"/>
		<path class="st0" d="M166.383,66.532h3.172v4.832c-0.478,0.22-1.535,0.477-2.979,0.477c-1.676,0-4.29-0.851-4.29-4.704
			c0-2.205,1.235-4.603,4.665-4.603c1.057,0,1.816,0.207,2.359,0.362l-0.132,1.765c-0.45-0.206-1.132-0.502-2.062-0.502
			c-2.228,0-2.667,2.049-2.667,3.067c0,1.676,0.773,2.991,2.385,2.991c0.308,0,0.553-0.038,0.734-0.128v-2.037h-1.187V66.532z"/>
		<path class="st0" d="M173.986,64.868c2.062,0,3.157,1.43,3.157,3.44c0,2.037-1.096,3.481-3.157,3.481
			c-2.064,0-3.157-1.444-3.157-3.481C170.829,66.297,171.922,64.868,173.986,64.868z M173.986,70.396
			c0.709,0,1.043-0.772,1.043-2.088c0-1.313-0.334-2.049-1.043-2.049s-1.046,0.735-1.046,2.049
			C172.94,69.624,173.277,70.396,173.986,70.396z"/>
		<path class="st0" d="M177.733,64.971h2.114l1.238,4.781h0.024l1.225-4.781h1.985l-2.101,6.716h-2.397L177.733,64.971z"/>
		<path class="st0" d="M190.802,68.862h-3.958c0,0.8,0.518,1.534,1.663,1.534c0.696,0,1.392-0.257,1.895-0.527l0.039,1.534
			c-0.657,0.245-1.431,0.387-2.126,0.387c-2.357,0-3.403-1.43-3.403-3.481c0-1.804,1.056-3.44,2.979-3.44
			c0.604,0,2.912,0,2.912,3.506V68.862z M188.946,67.755c0-0.853-0.219-1.65-1.057-1.65c-1.046,0-1.046,1.29-1.046,1.65H188.946z"/>
		<path class="st0" d="M191.999,66.376c0-0.645-0.014-1.057-0.053-1.405h1.856c0.012,0.399,0.037,0.812,0.051,1.212h0.025
			c0.414-0.722,0.695-1.315,1.869-1.315h0.297v1.882c-0.22-0.053-0.399-0.076-0.684-0.076c-1.185,0-1.327,1.029-1.327,2.011v3.002
			h-2.035V66.376z"/>
		<path class="st0" d="M200.724,67.549c0-0.839-0.375-1.057-0.787-1.057c-0.656,0-0.89,0.566-0.89,1.43v3.764h-2.035v-5.311
			c0-0.645-0.013-1.057-0.052-1.405h1.854c0.026,0.296,0.053,0.669,0.053,1.121h0.025c0.31-0.733,0.825-1.224,1.895-1.224
			c1.482,0,1.973,1.083,1.973,2.423v4.396h-2.036V67.549z"/>
		<path class="st0" d="M211.469,67.549c0-0.774-0.321-1.057-0.773-1.057c-0.604,0-0.837,0.437-0.837,0.939v4.254h-2.036v-4.137
			c0-0.853-0.373-1.057-0.71-1.057c-0.669,0-0.9,0.58-0.9,1.43v3.764h-2.036v-5.311c0-0.645-0.013-1.057-0.052-1.405h1.856
			c0.025,0.296,0.051,0.669,0.051,1.121h0.026c0.31-0.733,0.824-1.224,1.894-1.224c0.967,0,1.456,0.451,1.74,1.121
			c0.296-0.63,0.773-1.121,1.843-1.121c1.481,0,1.971,1.083,1.971,2.423v4.396h-2.036V67.549z"/>
		<path class="st0" d="M220.644,68.862h-3.956c0,0.8,0.515,1.534,1.662,1.534c0.695,0,1.393-0.257,1.895-0.527l0.038,1.534
			c-0.656,0.245-1.43,0.387-2.126,0.387c-2.358,0-3.402-1.43-3.402-3.481c0-1.804,1.058-3.44,2.977-3.44
			c0.606,0,2.913,0,2.913,3.506V68.862z M218.788,67.755c0-0.853-0.22-1.65-1.058-1.65c-1.043,0-1.043,1.29-1.043,1.65H218.788z"/>
		<path class="st0" d="M225.552,67.549c0-0.839-0.373-1.057-0.786-1.057c-0.656,0-0.89,0.566-0.89,1.43v3.764h-2.036v-5.311
			c0-0.645-0.012-1.057-0.051-1.405h1.856c0.025,0.296,0.051,0.669,0.051,1.121h0.026c0.309-0.733,0.823-1.224,1.895-1.224
			c1.481,0,1.971,1.083,1.971,2.423v4.396h-2.036V67.549z"/>
		<path class="st0" d="M228.477,64.971h1.16v-1.379l1.983-0.631v2.01h1.316v1.431h-1.316v3.082c0,0.656,0.298,0.837,0.685,0.837
			c0.283,0,0.463-0.053,0.671-0.142v1.43c-0.208,0.078-0.763,0.181-1.42,0.181c-1.057,0-1.972-0.515-1.972-1.984v-3.403h-1.107
			V64.971z"/>
	</g>
	<g>
		<g>
			<path class="st0" d="M16.779,34.708c0,0,0.367-0.913,1.096-1.287c0.733-0.375,1.757-0.44,2.958-0.304
				c1.024,0.111,3.144,1.05,6.206,3.594c4.263,3.54,5.786,5.729,5.817,5.624c0.269-0.857,1.293-2.521,1.293-2.521
				c-2.013-1.764-9.05-6.366-11.241-7.238C20.444,31.585,17.057,31.322,16.779,34.708z"/>
			<path class="st0" d="M19.336,30.451c2.976-0.748,3.304,1.218,3.934,1.687l2.277,1.395C22.471,26.715,19.336,30.451,19.336,30.451
				z"/>
			<path class="st0" d="M20.644,33.914c7.063,5.178,1.144,7.574,1.144,7.574c1.386,0.589,2.492,0.193,3.096-0.708
				c0.219-0.34,0.428-0.756,0.543-1.084c0.2-0.56,0.221-1.014,0.221-1.014c2.504,2.455,5.231,6.648,7.013,8.872
				c-0.541-2.158-0.124-3.127-0.291-3.33c-2.126-2.555-2.837-3.47-4.228-5.015C23.936,34.561,20.644,33.914,20.644,33.914"/>
		</g>
		<path class="st0" d="M49.918,33.417c-0.333-0.854-0.225-3.303-0.129-3.748c0.351-0.941,0.667-1.863,0.859-2.739l0.155,0.08
			l1.109,0.695c-0.461-0.577-0.901-2.093-1.133-3.011c-0.017-0.118-0.041-0.241-0.072-0.356c-0.486-1.967-1.479-3.117-1.479-3.117
			s0.727,1.876,0.48,3.396c-0.239,3.174-4.743,6.813-3.726,12.373c0.562,3.072,3.636,5.519,3.636,5.519s-0.979-2.022-1.671-5.84
			c-0.274-1.502,0.212-2.68,0.879-4.481l0.246,0.231L49.918,33.417z"/>
		<path class="st0" d="M80.995,11.7c0,0-7.984,1.289-11.934,2.558c-3.957,1.266-9.723,3.76-12.337,7.028
			c-2.613,3.271-0.413,8.455-1.08,11.905c-0.667,3.452-5.788,6.957-5.788,6.957s5.959-1.525,8.154-6.33
			c1.615-3.53-0.436-5.984,2.042-11.436C62.53,16.939,80.995,11.7,80.995,11.7z"/>
		<path class="st0" d="M81.203,12.084c0,0-6.59,2.043-8.667,8.483l2.952-0.656C75.487,19.911,75.529,15.896,81.203,12.084z"/>
		<path class="st0" d="M91.641,20.997c0,0-10.377-2.074-20.578,0.922c-10.203,2.993-8.767,8.325-8.877,11.295
			c-0.105,2.974-2.623,9.567-11.601,8.698c0,0,5.322,2.908,11.25-1.871c5.924-4.782,1.791-10.575,6.558-13.334
			C73.158,23.946,76.853,21.652,91.641,20.997z"/>
		<path class="st0" d="M65.784,35.743c0,0,4.055,0.566,6.443,3.354c0,0-3.267-2.533-6.98-1.882
			C65.247,37.215,65.601,36.484,65.784,35.743z"/>
		<path class="st0" d="M83.324,31.317c0,0-9.795,0.231-9.894,8.465C73.251,39.474,68.049,30.397,83.324,31.317z"/>
		<path class="st0" d="M90.929,21.516L90.929,21.516c-9.862,2.032-7.605,9.806-7.605,9.806l0,0
			C78.307,21.344,90.929,21.516,90.929,21.516z"/>
		<path class="st0" d="M63.575,47.095c2.576-6.94,9.54-7.22,9.796-7.228c-7.407-1.457-9.292,2.287-9.725,4.916
			c-6.332-1.236-11.748-1.364-11.748-1.364C59.508,44.483,63.575,47.095,63.575,47.095z"/>
		<path class="st0" d="M23.585,67.736c0,0,1.564-0.846,3.393-0.671c1.125,0.107,3.302-0.707,3.302-0.707
			c-0.917-0.008-3.084-1.091-4.991-0.854C23.383,65.739,23.585,67.736,23.585,67.736z"/>
		<path class="st0" d="M60.002,62.83c0,0-0.156-1.502,1.278-1.677c1.432-0.181,3.053,0.636,3.742,0.638c0,0-1.628,0.613-2.478,0.534
			C61.178,62.194,60.002,62.83,60.002,62.83z"/>
		<path class="st0" d="M73.978,68.52c0,0,1.407-0.769,3.055-0.611c1.016,0.099,2.57-0.039,2.57-0.039
			c-0.829-0.005-2.129-1.695-4.092-1.366C73.806,66.788,73.978,68.52,73.978,68.52z"/>
		<path class="st0" d="M82.518,30.936c-11.923-2.875-15.634-0.814-15.634-0.814s0.262-0.675,0.43-1.052
			c0.269-0.594,0.34-0.752,0.417-0.894C76.47,27.839,82.518,30.936,82.518,30.936z"/>
		<path class="st0" d="M36.856,23.355c0,0-1.342-1.44-2.917-1.44c-2.274,0-4.171,2.428-6.196,2.431
			c-2.025,0-3.036-0.683-3.036-0.683s1.227,1.652,3.157,1.652c2.512,0,4.37-2.47,6.035-2.47
			C35.558,22.843,36.856,23.355,36.856,23.355z"/>
		<path class="st0" d="M42.063,25.957c0,0,0.351,1.271,0.149,3.587c-0.196,3.971-7.963,9.441-7.868,16.021
			c0.055,3.935,2.955,6.281,2.955,6.281s-1.303-3.468-0.721-6.941c0.803-4.824,6.879-10.325,6.689-15.061
			C43.151,27.053,42.063,25.957,42.063,25.957z"/>
		<path class="st0" d="M38.31,51.779c0,0-1.172-2.768-0.29-5.221c0.574-1.584,2.072-2.935,5.027-3.674c0,0-5.167,4.707-1.377,8.774
			c0,0-2.703,2.871-3.735,5.324c-1.03,2.451-3.283,7.592-4.025,8.789c-0.752,1.187-1.802,2.724-4.753,4.053
			c-3.267,0.284-6.844,0.832-7.078,3.357c0,0-0.631-0.63-0.574-2.226c0.06-1.594,2.705-3.376,5.471-3.283
			c2.767,0.103,5.237-0.607,6.532-3.941C34.8,60.39,37.633,52.365,38.31,51.779z"/>
		<path class="st0" d="M42.717,52.047c0,0-4.215,12.919-11.599,17.664c0,0,4.499-0.641,5.886-0.075
			c1.39,0.57,2.814,1.514,1.462,3.672c0,0,2.677-1.469,1.938-3.682c-0.582-1.751-3.206-1.892-3.206-1.892s-0.757-0.329-0.317-1.443
			c0.439-1.124,3.261-4.842,3.71-5.514c0.447-0.681,4.111-6.209,4.256-6.527c0,0,3.227,0.458,4.771-2.617
			c1.611-3.195-1.823-6.289-1.823-6.289s1.507,3.434-0.237,5.123C45.493,52.463,42.717,52.047,42.717,52.047z"/>
		<path class="st0" d="M46.308,55.058c0,0,1.555-0.324,2.082-0.716c0,0,0.721,0.78,3.696,0.716c0.251-0.002,0.415,0,0.51,0
			c3.304-0.409,7.33-1.592,13.656-4.231l0.686,1.129c-4.939,1.666-10.898,6.362-18.373,5.621c-0.532-0.057-2.987-0.547-3.498-0.707
			C45.378,56.451,46.308,55.058,46.308,55.058z"/>
		<path class="st0" d="M67.588,61.337c-0.642,1.066-1.601,2.489-3.646,3.178c-2.222-0.045-4.891,0.502-5.072,2.395
			c0,0-0.471-0.477-0.432-1.666c0.042-1.201,1.683-2.504,4.104-2.374c2.077,0.111,3.416-0.749,4.313-3.024
			c0.613-1.527-0.038-4.808,0.784-6.889c0,0,1.119,0.864,1.612,1.276c0,0,0.04-0.013-0.197,0.553
			C68.283,56.628,68.65,59.286,67.588,61.337z"/>
		<path class="st0" d="M70.739,54.924c0,0,0.635,0.431,1.248,0.763c-0.509,1.233-0.673,2.014-0.771,2.273
			c-0.212,0.583-0.914,2.942-1.244,3.783c-0.333,0.834,0.233,1.078,0.233,1.078s1.972,0.111,2.407,1.422
			C73.168,65.903,71.166,67,71.166,67c1.008-1.613-0.058-2.324-1.101-2.75c-1.041-0.424-4.093,0.055-4.093,0.055
			C69.174,62.552,70.225,56.134,70.739,54.924z"/>
		<path class="st0" d="M82.865,67.999c0,0,0.854,1.781,0.368,2.435c-1.938,0.058-3.255-0.002-6.114,0.288
			c-2.645,0.271-4.358,0.444-4.566,2.721c0,0-0.572-0.571-0.521-2.009c0.054-1.434,2.439-3.036,4.932-2.944
			c0,0,3.122,0.055,3.473-0.13c0.746-0.399-1.153-4.032-1.476-4.688c-2.768-5.537-2.698-7.331-2.809-7.626
			c0,0-7.745-1.452-9.65-6.728c6.15,5.231,11.24,5.184,11.24,5.184C78.385,57.012,81.03,64.443,82.865,67.999z"/>
		<path class="st0" d="M84.872,38.887c0.806-0.025,1.485-0.016,2.25,0.034c3.362-7.187,9.091-14.622,9.091-19.01
			c0-2.832-1.949-4.736-1.949-4.736l-0.332,1.066c0,0-1.58-3.62-2.746-4.532l0.038,0.022c0,0,3.637,1.449,4.879,2.458v-0.021
			l-0.92,0.242h-0.034c2.319,2.144,2.189,5.543,2.189,5.543c0.186,5.219-5.463,11.212-8.736,19.094
			c7.369,0.918,12.515,5.502,12.515,10.491c0,6.991-4.274,9.448-8.162,9.5c-1.372,0.014-2.891-0.202-4.669-1.255
			c-2.073-1.228-3.806-3.508-3.806-7.953c0-4.354,1.015-7.059,1.586-8.585l-0.015-0.017c-1.766,0.065-3.507,0.276-5.024,0.59
			c0,0-1.371,0.408-1.99,0.598c1.646,0.963,3.259,2.531,3.824,4.987c0.357,1.757,0.19,3.995-0.683,6.842
			c-0.186,2.787,1.026,6.924,1.968,9.999l1.057,2.81c0.562,1.244,1.434,1.594,1.434,1.594s2.159,0.315,2.765,1.625
			c0.813,1.741-0.578,2.629-0.578,2.629c0.498-2.094-1.315-2.323-2.382-2.48l-0.088-0.012c-1.046-0.152-1.742-0.061-1.742-0.061
			c0.133-0.71-1.226-4.493-1.131-4.244c0,0-1.74-5.003-2.474-7.202c-0.765-2.269-1.284-5.483-1.284-5.483s5.224-8.707-6.46-12.636
			c0,0,0.822-0.085,1.456-0.004c1.317-0.518,3.023-0.875,3.023-0.875C79.82,39.342,82.162,38.976,84.872,38.887z M87.775,41.241
			c-0.951,2.826-1.539,5.885-1.422,9.226c0.106,3.06,2.086,7.309,6.905,6.879c2.506-0.22,4.076-1.847,4.882-3.489
			c0.946-1.936,0.884-3.925,0.884-3.925s0.062-3.161-2.967-5.844C94.396,42.57,91.834,41.405,87.775,41.241"/>
		<path class="st0" d="M36.117,18.767c0,0-4.041-1.291-6.55,0.759l1.32,2.278c0,0,3.833-3.129,6.667,1.361
			c0,0-2.111,2.762-6.569,1.983c0,0,1.214,2.09,4.171,2.071c2.96-0.019,5.838-2.995,6.765-1.99c0,0-0.313-4.241,4.857-5.735
			c0,0,1.182,0.962,1.393,1.504c0,0,1.697-1.338,1.605-4.616c-0.091-3.279-1.939-4.77-2.6-5.328c0,0,0.389,1.958-0.48,3.781
			c-0.505,1.061-1.621,2.388-3.327,2.437c0,0-1.402,0.023-2.335-0.257C40.101,16.731,36.401,15.486,36.117,18.767z M40.621,18.496
			c0,0-1.231,2.121-3.147,0.89c0,0,0.044-1.263,1.129-1.143C39.689,18.366,39.547,18.812,40.621,18.496z"/>
	</g>
</g>
<g>
</g>
<g>
</g>
<g>
</g>
<g>
</g>
<g>
</g>
<g>
</g>
<g>
</g>
<g>
</g>
<g>
</g>
<g>
</g>
<g>
</g>
<g>
</g>
<g>
</g>
<g>
</g>
<g>
</g>
</svg>
